<?xml version="1.0" encoding="UTF-8"?>
<!DOCTYPE svg PUBLIC "-//W3C//DTD SVG 1.1//EN" "http://www.w3.org/Graphics/SVG/1.1/DTD/svg11.dtd">
<!-- Creator: CorelDRAW X6 -->
<svg xmlns="http://www.w3.org/2000/svg" xml:space="preserve" width="122.671mm" height="25.2713mm" version="1.1" style="shape-rendering:geometricPrecision; text-rendering:geometricPrecision; image-rendering:optimizeQuality; fill-rule:evenodd; clip-rule:evenodd"
viewBox="0 0 6804 1402"
 xmlns:xlink="http://www.w3.org/1999/xlink">
 <defs>
  <style type="text/css">
   <![CDATA[
    .str1 {stroke:black;stroke-width:11.0938}
    .str0 {stroke:black;stroke-width:55.4692}
    .fil3 {fill:none}
    .fil4 {fill:black}
    .fil0 {fill:black}
    .fil2 {fill:#282829}
    .fil1 {fill:#FEFEFE}
    .fil6 {fill:black;fill-rule:nonzero}
    .fil5 {fill:black;fill-rule:nonzero}
   ]]>
  </style>
    <clipPath id="id0">
     <path d="M900 1331c456,115 897,-76 986,-428 89,-351 -209,-729 -664,-844 -456,-115 -897,76 -986,428 -89,351 209,729 664,844z"/>
    </clipPath>
 </defs>
 <g id="Camada_x0020_1">
  <metadata id="CorelCorpID_0Corel-Layer"/>
  <g id="_704691632">
   <g>
    <path class="fil0 str0" d="M905 1311c308,80 688,41 890,-233 276,-374 -42,-805 -411,-964 -70,-30 -90,-34 -163,-56l0 0c-316,-65 -693,-32 -897,251 -288,400 91,859 497,981l83 20 -10 39c-64,-22 -102,-33 -164,-61 -374,-167 -696,-604 -415,-986 208,-282 587,-314 905,-245l0 0c93,27 151,44 239,90 369,191 623,643 304,991 -226,246 -562,262 -869,211l10 -39z"/>
   </g>
   <g>
   </g>
   <g style="clip-path:url(#id0)">
    <g id="_704698128">
     <rect class="fil1" transform="matrix(1.35824 0.343004 -0.343004 1.35824 58.2762 -384.174)" width="1655" height="1327"/>
     <path class="fil0" d="M799 1027c-8,-6 -14,10 -37,-3 -10,-6 -9,-25 0,-36 8,-9 25,-9 35,2 14,14 -6,29 1,37zm537 -185l-1 3c3,1 2,1 2,-2 -1,-6 5,1 -1,-2 -2,-5 2,-2 -12,-10 -13,-8 -23,-19 -37,-29 -11,-8 -40,-34 -43,-42 -6,-5 -9,-10 -14,-16 -3,-4 -7,-12 -12,-15 -10,-7 -36,-7 -47,-8l-8 27 -9 -2 6 -26 -19 0c-5,4 -3,9 -9,19l-12 -1c1,-7 6,-15 0,-17l-1 -1c3,10 -5,13 -12,13 -8,0 -20,-4 -28,-6 -2,-3 -3,3 -1,-5l-18 1c23,-48 2,-65 -1,-106 14,2 29,15 51,20 41,9 45,14 69,-10 13,-13 43,-34 50,-41 6,-10 2,-5 9,-9 4,-3 2,-1 5,-4 6,-4 1,-1 6,-3 6,-1 11,-7 8,-14l-5 6 -2 6 -9 0c1,8 0,10 -11,8l1 -17c0,-1 0,-1 -1,-2l-4 -3c-5,0 -5,1 -3,-2l-1 -4c-11,2 -12,6 -18,13 29,4 19,8 16,13l-26 -6 -16 13c3,-6 3,-6 10,-11 4,-2 0,4 3,-1 0,-1 1,0 1,-1 2,-8 1,-2 -2,-5l0 0 -5 4 -3 3c0,1 -1,1 -1,2 0,0 -1,1 -1,1 -7,9 7,-2 -3,1 0,3 1,2 -3,2l-1 2c4,5 3,2 3,5 -2,-1 3,3 -1,-1 -2,-2 -2,6 -3,-2 0,-1 -1,-1 -2,-2 2,6 1,6 -2,9 0,-1 -2,-2 -3,-2 0,0 -4,4 -4,4l0 -3c-2,1 -1,0 -3,3l2 2 -4 -1c-14,11 -10,2 -22,-1 -22,-5 -11,4 -42,-18 -6,-4 -5,-2 -9,-3 -4,-2 0,1 -5,-3l-20 -17c-21,-14 -16,-19 -33,-27 -21,-9 -8,-8 -20,-12 3,10 6,13 9,28 -3,4 2,2 -3,3 4,13 6,25 11,38 19,48 26,44 18,81 -8,39 2,44 -18,45 -5,0 -3,0 -8,1 -35,11 -15,-5 -42,3 -20,6 -34,10 -47,25l-6 -2c5,8 7,2 8,14 1,7 1,11 2,17 1,8 3,26 3,33 -5,-3 -3,-4 -5,1l5 -1 4 6c-4,14 -5,23 -12,36 -5,9 -7,23 -11,35l-18 52 -14 11 -51 16c-20,10 -25,19 -53,20 -3,2 -1,1 -4,3l-27 14c-3,1 -6,15 -6,21l10 5 -2 6c2,4 2,5 5,9 3,3 1,0 4,5 4,7 1,1 3,7l17 7c13,-18 12,-9 27,-16l2 -5c-1,-9 2,-23 10,-29 8,-6 18,-2 31,1l3 6 2 -1c4,-2 -2,-3 5,-3l4 -18c11,3 6,7 9,15 8,-1 15,-4 23,-6l19 -5c21,-6 27,-13 39,-36 9,-17 16,-32 25,-48l29 -46 3 -6c6,-10 11,-17 18,-26 7,-9 11,-16 21,-18 18,-3 42,-6 60,-7l2 0 9 -2c13,-2 13,-3 27,2l13 -6c7,2 12,6 18,6 5,1 11,-1 18,-1 3,4 2,3 4,6l7 6c25,27 24,14 44,31l32 38c5,6 2,8 8,15 1,-1 4,-6 6,-7 4,-2 1,-6 4,1 6,-3 2,-1 3,-5 3,1 2,2 3,-2 3,2 2,2 3,-1l1 -2c4,0 2,1 2,-3l7 2c0,-1 -1,-2 -2,-2 0,0 -1,-1 -2,-1 -4,-2 -4,-4 -4,1 -4,-1 -2,-1 -2,3l-1 2 -3 1c-4,-2 -3,-3 -3,2 0,0 -1,0 -1,1 0,0 -1,1 -1,1 0,0 -1,0 -1,1l3 -5c4,-7 0,0 2,-3 2,-3 3,-3 4,-6 11,-15 6,-38 29,-32zm-635 -149c4,7 4,11 13,17 25,12 28,1 40,-14 9,-12 20,-25 30,-35 -3,-9 -12,-1 -12,-11 6,-2 10,0 18,2 4,-1 2,0 4,-3 2,-2 1,-2 5,-5 0,0 -33,-10 -19,-27 8,-9 31,0 45,3 6,-8 -2,-10 8,-11 8,-1 4,6 4,15l5 -1c19,0 32,-23 48,-13 1,17 -21,84 -30,107 -4,10 -5,9 -12,13 -8,4 -23,9 -28,17 6,9 7,10 22,12 -2,11 -9,20 -14,29 -7,15 0,24 15,18l-11 0c3,-15 3,-17 16,-22 8,-3 16,-9 22,-16 6,-6 14,-15 19,-21 3,-4 5,-7 8,-11 9,-13 6,-9 11,-8 -3,4 -2,2 3,2 1,-4 1,-3 -3,-2 1,-12 12,-20 15,-33l0 -4c-11,-1 -21,-5 -25,-12 -2,-3 -3,-5 -3,-11 1,-22 14,-32 36,-23 9,4 7,2 6,9l-28 -5c-13,39 2,27 18,35 0,0 0,4 1,1 0,0 0,0 1,0 4,-10 0,-1 5,-5 8,-12 23,-42 28,-56 9,-27 6,-42 5,-65l-2 -6c-1,-3 0,-4 -1,-7 -2,-4 -3,-9 -4,-14 -4,-13 -17,-28 -13,-36 2,-4 3,-3 -1,-5 -7,4 -7,10 -15,14 -21,10 -34,11 -39,13 -21,9 -22,20 -45,37 -11,8 -21,15 -32,23 -19,14 -49,26 -62,51 -7,13 -18,18 -27,31 -16,22 -22,19 -25,35zm-27 99l0 -4 5 -12 -9 4 0 0c0,4 0,3 -3,1 -3,1 2,1 -3,-1l-2 -1c-5,-3 -12,0 -16,5 1,6 12,23 16,29 -28,-9 -12,-13 -26,-26 0,0 -1,1 -1,1l-2 3c-2,4 0,-1 -1,3 -1,3 -1,6 -3,9l-9 -2c6,-41 19,-43 4,-63 6,0 4,-1 6,5 1,-1 1,-1 2,-2l5 -4c1,-4 0,-3 3,-1l3 0 3 0 2 -2 5 -2c1,-3 0,-2 2,-1 4,-4 6,-6 8,-10 -8,-3 -12,3 -20,6 -11,4 -10,7 -18,0 -7,-4 -6,-2 -8,-10l0 -1c-9,-5 -2,1 -4,-5 -1,-2 -2,-3 -4,-5l4 11c0,0 1,1 1,1 0,0 1,1 1,1 1,1 2,2 3,4 1,1 1,2 3,4 0,0 1,1 1,1 0,0 1,1 1,1l3 4c2,5 4,-1 0,2 -4,2 0,2 -4,-2l-14 -18c-7,-9 -19,-16 -30,-9l-2 2c0,0 -1,1 -1,1 0,0 0,1 -1,1 -6,5 7,0 -2,1 0,0 -1,-1 -5,0 -2,1 -9,7 -11,4 6,-4 3,0 -1,-3l-2 1c1,8 4,4 -1,4 -2,3 -5,4 -10,2l-2 2c-5,1 -4,-1 -7,4 -1,2 -3,4 -3,5 9,4 7,-1 8,7l-14 3 -6 27c11,7 14,-1 8,11l-15 -3c-2,-12 -7,-9 0,-31 0,0 0,-1 0,-1 2,-6 2,-1 2,-6l-3 0c0,3 1,2 -3,1l-2 2c0,3 0,3 -3,1 -1,3 0,3 -2,2l-2 2 0 9c0,0 0,2 0,2 0,0 0,1 0,2 -2,4 -2,3 -3,4 -2,3 1,0 -4,4l-2 1 -3 1 -2 1c-6,4 -15,11 -11,20 -1,-13 -1,-3 3,-6 1,21 15,21 6,30 9,-2 6,3 22,26l44 57c2,6 -3,0 3,3 10,6 7,9 22,20 -2,-3 -3,-1 10,-8 11,-6 39,-21 46,-28 3,2 4,0 4,6 -1,-10 9,-12 27,-27l17 -14c0,0 1,-1 1,-1l12 -11 12 -1 -6 -11c1,6 -4,1 2,6l-4 -2c-5,-2 -2,0 -5,-2 -4,-2 -1,0 -4,-3l-4 -7c-3,-4 -4,1 -12,-1 -3,-9 3,-9 -2,-18 -2,-4 -4,-5 -6,-8 -7,-10 -4,-4 -2,-7l10 7c1,1 0,5 3,2 0,0 1,1 2,1zm-124 -52c9,-2 41,1 27,36 -9,22 -40,10 -43,-5 -2,-9 0,-27 16,-31zm46 48c5,3 12,4 16,7 10,9 -26,9 -29,-13 -5,-38 39,-33 40,-21 -5,6 -15,-2 -24,1 -7,7 -6,20 -3,27zm402 -381c1,4 1,14 1,18 -1,4 0,4 -2,7 -6,7 -3,3 -6,3 0,4 1,4 -2,2 -1,6 0,3 -3,3 -2,7 0,4 -3,4 -1,14 -9,21 -13,6 -3,-10 -2,-16 -16,-16 -9,15 3,25 8,34l-10 14c-4,-1 -2,0 -5,-2 1,5 0,3 4,6l-5 3c4,2 3,1 1,5 9,18 34,24 44,37l2 0 6 -25 3 -7c20,3 16,0 23,-25 3,-12 1,0 8,-10 -3,-9 -8,-11 -6,-22 3,2 2,2 3,-2l0 -2 0 2 -3 2c-12,-6 -14,-3 -23,0 7,-11 10,-7 24,-5l-1 -26c-3,1 -3,1 -5,1 -6,0 6,2 -3,0 -10,-3 -4,-1 -5,-4l-11 -2c-1,4 0,3 -4,1zm-266 611l-3 1 -3 2c-6,0 -15,-2 -25,0 -11,3 -12,5 -23,6 -3,9 -4,13 -5,23 -1,11 -1,9 5,15 -5,19 -12,24 -13,46 -1,17 -1,37 18,27 -8,-2 -3,0 -8,-3 -1,-9 0,-21 3,-28 3,-5 7,-5 12,-5 3,0 -2,6 6,-1l33 -41c5,-5 5,-6 12,-11 6,-4 10,-5 15,-8 -2,-5 1,0 -3,-7 -3,-5 -1,-1 -4,-5 -3,-4 -3,-5 -5,-9 -12,-5 -1,-4 -15,-3zm110 -211c14,5 73,-1 85,-8 1,-5 0,-4 5,-1 0,-7 -2,-25 -3,-33 -1,-6 -1,-10 -2,-17 -1,-12 -3,-6 -8,-14 -6,-3 -3,-2 -8,-3 -5,0 -6,2 -3,-2 -5,-2 -2,-5 -11,8 -3,4 -5,8 -8,11 -5,6 -13,15 -19,21 -7,8 -15,13 -22,16 -13,5 -13,7 -16,22l11 0zm520 58c8,4 1,18 -3,24 -2,4 -5,7 -8,9 -2,2 -2,3 -7,2 0,0 -1,0 -1,0 -4,-1 -1,1 -3,-1l-1 -3 1 3c4,12 14,28 32,31 4,-3 16,-15 21,-22 5,-8 4,-10 5,-15 3,-9 32,-32 21,-84 -12,-3 -14,-3 -19,7 -4,8 -5,15 -9,22 -6,12 -20,13 -30,26zm-370 -333l-2 0c-7,-1 -10,-1 -15,4 -2,2 -4,5 -5,6 -5,5 0,6 -6,2 0,3 0,3 1,7l2 6c7,-9 4,-9 14,-12 5,14 11,0 12,32 0,25 11,65 4,77 -5,9 -14,5 -9,29 1,4 0,2 1,4 22,2 27,-7 34,-19 12,-20 2,-28 -2,-44 -12,-58 -11,-36 -18,-58 -2,-7 -1,-5 1,-12l6 -11c6,-2 1,1 3,-3 -6,-3 -6,-5 -13,-11l-7 4zm5 -124c-1,-6 -1,-4 4,-1l11 2 8 3c1,-7 0,-13 -6,-15l-6 0c0,0 -1,0 -1,0 -4,-1 -1,-2 -10,-4l5 6c-25,-6 -4,-11 -49,-6 6,-8 3,-3 10,-8 -3,0 -5,0 -7,0 0,0 -1,0 -1,0 0,0 -1,0 -1,0 0,0 -1,0 -1,0 0,0 -2,1 -2,1l-3 2c-10,2 9,2 -2,-2 0,4 1,3 -3,1 -2,2 3,5 -4,1 0,4 1,3 -3,2 -19,18 -13,31 -12,53l-1 0c2,2 1,1 3,4 0,1 1,2 2,3 1,3 2,4 3,7l8 0c4,9 10,8 6,22l-1 2c3,2 1,1 5,2l10 -14c-5,-9 -17,-20 -8,-34 14,0 13,5 16,16 5,15 12,9 13,-6 2,-10 1,-3 3,-4 2,-7 0,-2 3,-3 0,-4 -1,-4 2,-2 4,-5 4,-2 6,-10 -1,4 0,4 -5,5 -5,1 -4,-2 -9,0l1 -4c0,0 0,-1 -1,-3 -5,1 -11,3 -15,7 -2,-3 -3,-3 -1,-7 -5,2 -6,4 -10,2 -4,-2 -4,-5 -5,-7l-14 7c0,0 -3,0 -6,0 3,-18 4,-27 23,-27 14,0 31,2 44,8zm-524 382c-2,14 19,37 21,50 3,0 3,-1 2,2 3,0 2,-1 2,2l2 2 1 2c3,1 3,0 2,3l2 2 2 2c5,5 13,17 19,24 50,62 43,49 75,34 22,-11 93,-58 102,-78l-12 1 -12 11c0,0 -1,1 -1,1l-17 14c-17,15 -27,17 -27,27 0,-5 -2,-3 -4,-6 -7,7 -34,22 -46,28 -13,7 -12,4 -10,8 -15,-11 -12,-13 -22,-20 -6,-4 -1,3 -3,-3l-44 -57c-16,-23 -13,-27 -22,-26 8,-9 -5,-9 -6,-30 -4,3 -4,-7 -3,6zm223 35c-1,-3 1,1 -2,-4l-21 -29c-1,0 -1,-2 -2,-1 -3,3 -2,-2 -3,-2l-10 -7c-2,3 -5,-3 2,7 3,4 4,4 6,8 5,9 0,9 2,18 8,2 10,-3 12,1l4 7c3,3 1,1 4,3 4,2 0,0 5,2l4 2c-6,-5 -1,0 -2,-6zm-30 -42c4,2 3,2 3,-1l-3 1c0,0 -3,-3 -3,-3l-6 -7c-3,-4 -4,-4 -7,-10 -12,-19 -16,-12 -13,-23 3,2 2,2 3,-1l3 0 3 0 2 -2 -2 2 -3 0 -3 0c-4,-2 -3,-3 -3,1l-5 4c0,0 -1,1 -2,2 -2,-6 -1,-5 -6,-5 15,20 2,23 -4,63l9 2c1,-3 2,-6 3,-9 2,-5 -1,1 1,-3l2 -3c0,0 1,-1 1,-1 14,12 -2,17 26,26 -4,-6 -15,-23 -16,-29 5,-5 11,-8 16,-5l2 1c4,2 0,2 3,1zm-57 -73l-3 -6c-10,-8 -36,2 -47,7 -5,2 -1,-1 -5,3 4,3 7,0 1,3 2,2 9,-4 11,-4 4,-1 5,0 5,0 9,-1 -4,4 2,-1 0,0 0,-1 1,-1 0,0 1,-1 1,-1l2 -2c11,-6 23,1 30,9l14 18c4,4 0,3 4,2 3,-2 2,3 0,-2l-3 -4c0,0 -1,-1 -1,-1 0,0 -1,-1 -1,-1 -1,-2 -2,-2 -3,-4 -1,-1 -2,-2 -3,-4 0,0 -1,-1 -1,-1 0,0 -1,-1 -1,-1l-4 -11zm-58 5c-6,4 -7,3 -12,6l-2 2 2 -2c5,2 8,1 10,-2 5,0 2,4 1,-4zm66 5l-4 -5c1,6 -5,1 4,5zm8 11c0,0 -1,-1 -1,-1l-8 -9c2,8 1,6 8,10zm38 -6c-2,4 -4,6 -8,10 -3,-1 -2,-2 -2,1l2 -1c3,11 -2,9 5,22 3,7 7,14 17,14l3 -8c-1,-2 -3,0 1,-4 0,0 3,-3 3,-3 4,-3 1,-1 4,-3 0,0 1,1 1,1l4 5c18,-13 11,-22 24,-36l-11 -5c-8,-4 -6,-4 -11,-9 -6,10 -5,4 -16,8 -9,3 -7,6 -17,8zm637 162c0,-5 -1,-4 3,-2l3 -1 1 -2c0,-5 -1,-4 2,-3 0,-5 -1,-3 4,-1 0,0 1,1 2,1 1,0 1,1 2,2 8,6 13,8 21,15l1 3c2,2 -1,1 3,1 0,0 1,0 1,0 4,0 5,-1 7,-2 3,-2 6,-5 8,-9 4,-6 10,-20 3,-24 -15,3 -20,-6 -31,-12l4 -8 1 -3c-23,-6 -18,17 -29,32 -2,3 -2,3 -4,6 -2,2 2,-4 -2,3l-3 5c0,0 1,-1 1,-1 0,0 1,-1 1,-1 0,0 1,0 1,-1zm-13 10l6 1 4 -7c-3,-7 0,-4 -4,-1 -1,1 -4,6 -6,7zm-298 -459c-4,-2 -3,-3 -2,2 -3,1 -1,-5 -3,3 -2,1 -1,-6 -3,4 3,-1 1,3 3,-4 3,1 2,3 3,-3 4,2 3,2 2,-2 3,-1 0,4 6,-3 2,-3 2,-3 2,-7 0,-4 0,-14 -1,-18 4,2 3,3 4,-1 -5,-3 -5,-4 -4,1 -14,-6 -30,-8 -44,-8 -20,0 -20,10 -23,27 3,0 6,0 6,0l14 -7c1,3 1,6 5,7 4,2 5,0 10,-2 -2,3 -1,4 1,7 4,-4 10,-6 15,-7 1,1 1,3 1,3l-1 4c5,-2 4,0 9,0 6,-1 5,-1 5,-5 -1,8 -1,4 -6,10zm262 80c-1,9 -2,3 1,8l25 7 6 1 4 -1c1,-3 5,-12 5,-15 1,-9 1,-3 -1,-7 -3,-7 2,4 -2,-3 -3,-4 -1,2 -3,-5l-26 -7 2 -11c-7,4 -9,22 -12,32zm-480 479l7 1 -7 -1zm1 -5c4,1 9,1 12,3 7,3 6,3 6,9 -1,33 -27,20 -26,8 0,-3 2,-8 3,-10 1,-4 1,-2 2,-5l4 -5zm25 38c-7,-8 12,-24 -1,-37 -11,-11 -28,-10 -35,-2 -9,11 -10,30 0,36 22,13 29,-2 37,3zm-252 -275c3,-6 8,-5 16,-2 9,4 7,6 6,15 -1,5 -1,12 -6,14 -9,1 -14,-1 -19,-8 -1,-5 0,-14 3,-20zm3 -11c-16,4 -18,21 -16,31 3,15 34,27 43,5 15,-35 -18,-38 -27,-36zm244 -93c8,-3 7,-4 13,-9 -5,-2 -8,-4 -12,-7 -8,-4 -8,-3 -7,-11 9,-2 24,3 35,6l-1 3c-3,-2 -2,-2 -3,1 -4,-2 -2,-2 -3,2 4,0 3,1 3,-2 3,1 2,2 3,-1 7,1 13,-2 19,-7l-5 1c0,-8 4,-15 -4,-15 -11,1 -3,3 -8,11 -14,-3 -37,-13 -45,-3 -14,16 18,27 19,27 -4,2 -3,2 -5,5zm-109 491c7,-6 9,-11 12,-17 4,-10 5,-13 11,-21 13,-18 14,-14 23,-39l-33 41c-8,7 -3,1 -6,1 -5,0 -10,-1 -12,5 -3,7 -4,19 -3,28 5,3 0,1 8,3zm328 -730c2,3 -5,1 5,4 10,2 -3,0 3,0 2,0 2,0 5,-1 5,-8 8,-12 1,-17 -17,-8 -54,-18 -73,-12 -8,3 -3,0 -6,3 -3,-2 -3,-2 -3,1 -6,-2 -3,-2 -4,1 -3,-2 -2,-2 -3,2 4,1 3,2 3,-2 8,4 2,1 4,-1 3,2 2,2 3,-1 11,4 -7,4 2,2l3 -2c0,0 2,-1 2,-1 0,0 1,0 1,0 0,0 1,0 1,0 0,0 1,0 1,0 1,0 4,0 7,0 -7,5 -4,0 -10,8 45,-5 25,0 49,6l-5 -6c9,1 6,2 10,4 0,0 1,0 1,0l6 0c6,2 7,7 6,15l-8 -3zm-90 287c3,-2 1,0 4,-4 1,-1 2,-3 3,-4 2,-3 2,-5 4,-9 -5,4 -1,-5 -5,5 0,0 0,0 -1,0 -2,3 -1,-1 -1,-1 -16,-7 -31,4 -18,-35l28 5c0,-7 3,-5 -6,-9 -22,-9 -35,1 -36,23 0,7 1,9 3,11 4,7 15,10 25,12l0 4zm-327 93c-3,-7 -4,-20 3,-27 9,-3 19,5 24,-1 -2,-11 -46,-17 -40,21 3,22 39,22 29,13 -4,-3 -12,-4 -16,-7zm709 -319l-5 6c-4,3 -5,3 -10,7 1,4 -3,3 4,6l-6 3c1,9 -3,3 3,9l-5 3c2,7 0,0 3,5 4,7 -1,-4 2,3 1,3 2,-3 1,7 -1,3 -4,12 -5,15l-4 1 4 -1c5,-4 3,-8 8,-16 10,-16 7,-2 14,-23l4 -12c1,-3 2,-4 3,-10l-11 -2zm-132 111c-5,0 0,-2 -6,3 -2,2 -4,4 -6,6l0 3c1,0 4,-4 4,-4 1,0 2,1 3,2 3,-3 4,-3 2,-9 1,1 2,1 2,2 1,9 1,0 3,2 5,4 0,0 1,1 -1,-3 1,0 -3,-5zm-18 12l4 1 -2 -2c-2,-2 -2,-2 -3,1zm66 -42l1 4c-1,4 -1,2 3,2 1,-3 1,-2 -3,-2l-1 -4 -1 -7 6 -7c-2,-3 8,-8 -8,-3 -1,0 -4,3 -5,4 -9,10 -13,18 -25,27 3,3 4,-3 2,5 0,0 -1,0 -1,1 -3,5 1,-1 -3,1 -7,4 -8,4 -10,11l16 -13 26 6c4,-5 13,-9 -16,-13 6,-8 8,-11 18,-13zm-41 22c-3,1 -2,0 -4,4l-3 2c3,1 3,2 3,-2 9,-3 -5,7 3,-1 0,0 1,-1 1,-1 0,0 1,-1 1,-2zm8 -6c-3,1 -1,-1 -5,4l5 -4zm-535 168l-5 2 -2 2 -3 0 -3 0c-1,3 0,3 -3,1 -2,11 2,4 13,23 3,5 3,6 7,10l6 7c0,0 2,3 3,3l3 -1 0 0 9 -11c-10,0 -13,-7 -17,-14 -6,-12 -2,-11 -5,-22l-2 1zm-111 37c5,6 10,9 19,8 5,-2 6,-9 6,-14 1,-9 3,-11 -6,-15 -8,-4 -13,-4 -16,2 -3,6 -4,15 -3,20zm235 223l-7 -1 7 1zm7 -3c-4,-2 -8,-2 -12,-3l-4 5c-1,3 -1,1 -2,5 -1,2 -3,8 -3,10 0,12 26,25 26,-8 0,-6 1,-6 -6,-9zm-273 -256l0 2c-3,-2 -2,-3 -3,0 -3,-1 -2,-2 -3,1l-2 2c-3,-1 -2,-1 -3,1 -3,-1 -2,-2 -2,2 -3,-2 -2,-2 -2,2l-2 -2 2 13c0,0 1,1 1,1 0,-1 0,-2 0,-2 0,0 0,-1 0,-2l0 -9 2 -2c3,1 2,2 2,-2 3,1 2,2 3,-1l2 -2c4,1 3,2 3,-1l3 0c1,4 0,0 -2,6 0,0 0,1 0,1 -7,21 -2,19 0,31l15 3c6,-12 3,-4 -8,-11l6 -27 14 -3c-1,-7 1,-3 -8,-7 1,-1 2,-4 3,-5l-18 9zm714 -199l-6 7 1 7 1 4c4,0 4,-1 3,2l4 3 22 5 5 -6 4 -6c-1,-5 1,-1 -4,-4l-3 4 -8 -1 -16 -11c3,-8 2,-5 6,-10 -7,0 -8,1 -10,8zm15 -24c4,5 0,1 10,2 3,-10 5,-28 12,-32l5 -21 -2 -4c-5,3 -2,0 -5,5 -4,6 -1,6 -10,19 -5,7 -10,21 -10,31zm-438 513c5,-3 9,-6 13,-10l3 -1 2 -2 -2 2 -3 1c-3,-12 1,-16 14,-15 2,0 5,1 5,1 10,7 -1,-4 3,5l-3 0 -4 3 -3 0 -2 2 2 -2 3 0 4 -3 3 0c2,-1 4,-1 5,-2 0,0 2,-1 2,-1 0,0 1,0 1,-1l-3 -6c-13,-4 -23,-8 -31,-1 -8,6 -11,20 -10,29zm-76 -43l-1 3 -3 -1 0 -1 0 4c-3,-3 -3,-4 -3,0 -4,-3 -3,-3 -2,2l-4 -1c0,1 2,6 2,6 4,7 1,2 5,5l0 2 3 2 -3 -4c-1,-10 3,-5 -4,-10l2 -2 3 0 4 -2 3 3c-2,2 0,-1 -1,3 -2,13 -1,10 1,13l-3 0 10 9 -6 6 -3 1 -3 2 3 -2 3 -1c14,-1 3,-1 15,3l2 -6 -10 -5c0,-7 3,-20 6,-21l27 -14c3,-2 1,-1 4,-3l-9 3c0,0 -1,0 -1,1 -11,6 -13,15 -37,7zm513 -470c0,7 1,8 -5,16 -5,6 -4,2 -6,10l16 11c3,-11 7,-14 6,-27 -4,-5 -3,1 -1,-8 -10,-2 -6,3 -10,-2zm-164 211c-2,9 -1,2 1,5 8,2 19,6 28,6 7,0 15,-4 12,-13 -15,1 -27,1 -41,2zm-271 -87c5,-2 7,-2 10,-4 1,-4 0,-4 3,-2 1,-4 0,-3 3,-1l1 -3c-11,-3 -26,-8 -35,-6 -1,8 -1,7 7,11 4,2 8,5 12,7zm440 -87l8 1 3 -4c2,-2 7,-9 9,-11 4,-3 2,-1 5,-2 6,-3 2,1 6,-4l-25 -7c0,12 -3,15 -6,27zm-550 157c5,5 3,5 11,9 5,2 8,3 13,4 11,2 10,-1 12,-2 -5,-7 -10,-4 -19,-9 -9,-5 -9,-9 -13,-17 -5,3 -1,-1 -6,5 0,5 1,5 2,9zm-18 62l-9 11 9 -4 -5 12c5,-3 17,-18 21,-22l0 -8 -4 -5c0,-1 -1,-1 -1,-1 -3,2 0,0 -4,3 0,0 -3,3 -3,3 -4,5 -2,2 -1,4l-3 8zm574 -205l-22 -5c0,1 1,1 1,2l-1 17c11,2 12,0 11,-8l9 0 2 -6zm-23 25c3,-2 3,-3 5,-5 2,-2 2,-2 5,-3 4,-3 6,-5 10,-8 -5,2 -1,-1 -6,3 -3,2 -1,1 -5,4 -7,5 -3,0 -9,9zm-70 134l-6 26 9 2 8 -27 -11 0zm108 -264l2 4 4 -11c7,-1 23,3 29,7l-2 16 5 -6 3 -10 -1 -4 -5 -2c-7,-2 -16,-5 -22,-6 -10,-2 -11,1 -12,11zm-147 266c6,2 1,10 0,17l12 1c6,-10 3,-16 9,-19l-20 1zm-303 293l3 -1 2 -2 4 -2 2 -2 3 0 4 -3 3 0c-4,-9 7,2 -3,-5 -1,-1 -4,-1 -5,-1 -12,-1 -17,3 -14,15zm119 -549c5,6 4,5 6,11l4 0c3,-14 -2,-13 -6,-22l-8 0 4 11zm348 10c-8,2 -8,-2 -14,3l-5 8c-1,4 0,2 0,4l8 -10 13 -1c6,-11 8,-8 11,-20 -13,4 -5,6 -13,16zm-435 526c7,-1 4,0 11,-2 3,-1 4,-1 8,-3 -3,-8 2,-12 -9,-15l-4 18c-8,-1 -2,1 -5,3zm-67 -343c4,-4 4,-3 7,-9 -8,-2 -12,-4 -18,-2 0,11 9,2 12,11zm519 -207l5 2 1 4c0,0 1,-1 1,-1 0,0 1,-1 1,-1 0,0 3,-3 3,-4 3,-5 2,-5 3,-10 -9,1 -10,3 -15,10zm-578 534l-3 0 -2 2c7,5 3,0 4,10l3 4 3 0 3 0c-2,-3 -4,1 -1,-13 1,-4 -1,0 1,-3l-3 -3 -4 2zm302 -545l3 -2 0 -2 -1 -1c-14,-2 -18,-6 -24,5 8,-3 11,-5 23,0z"/>
     <polygon class="fil2 str1" points="1458,214 1462,261 1510,274 1464,291 1468,338 1436,301 1389,318 1416,278 1383,241 1432,254 "/>
     <path class="fil0 str1" d="M540 1144c-43,3 161,29 177,34 95,24 214,-27 309,-32 73,-4 178,-94 307,-76 8,1 56,-34 160,-7 60,15 289,-64 344,-106 42,-32 171,-10 206,71 64,151 13,261 -41,416 -32,93 -185,206 -289,212 -189,12 -515,-75 -707,-131 -104,-30 -443,-174 -465,-291 0,-1 -22,-145 -7,-101 1,4 0,2 1,8l5 3z"/>
    </g>
   </g>
   <path class="fil3" d="M900 1331c456,115 897,-76 986,-428 89,-351 -209,-729 -664,-844 -456,-115 -897,76 -986,428 -89,351 209,729 664,844z"/>
   <path class="fil3" d="M53 996c91,-3 493,166 742,177 139,6 182,7 315,-39 107,-37 151,-108 336,-77 218,37 454,-121 485,-121"/>
   <g id="_704696688">
    <path class="fil4" d="M0 998c193,4 482,141 743,156 328,19 393,-133 588,-120 174,12 189,34 371,-31 249,-88 18,-16 176,-64 -78,42 -155,84 -240,111 -255,81 -259,-42 -499,74 -407,195 -743,-29 -1139,-126z"/>
   </g>
   <path class="fil3" d="M0 998c91,-3 493,166 742,177 139,6 182,7 315,-39 107,-37 151,-108 336,-77 218,37 454,-121 485,-121"/>
   <path class="fil5" d="M2305 409l12 34 -3 0c-30,-30 -66,-45 -108,-45 -43,0 -77,13 -104,38 -26,26 -40,56 -40,93 0,22 6,48 18,77 12,29 30,53 56,72 25,19 56,28 92,28 24,0 47,-4 69,-11 23,-8 40,-18 51,-31l3 1 -22 34c-36,8 -59,12 -69,14 -11,1 -25,2 -43,2 -66,0 -113,-15 -142,-46 -28,-31 -43,-67 -43,-110 0,-29 7,-57 22,-83 15,-27 36,-48 63,-63 27,-15 59,-23 94,-23 18,0 33,2 46,5 13,3 24,7 32,10l14 5c0,0 1,0 1,0z"/>
   <path id="1" class="fil5" d="M2453 393l0 3c-4,0 -9,0 -14,2 -5,2 -8,4 -9,8 -1,3 -1,11 -1,23l0 242c0,13 1,21 2,24 1,3 3,5 6,7 3,2 8,3 16,3l0 3 -84 0 0 -3c11,0 17,-2 20,-6 3,-4 4,-13 4,-28l0 -239c0,-15 -1,-25 -4,-29 -3,-5 -9,-7 -19,-6l0 -3 84 0z"/>
   <path id="2" class="fil5" d="M2484 396l0 -3 144 0c37,0 66,3 87,9 21,6 40,15 56,27 16,12 28,28 38,48 9,19 14,41 14,65 0,23 -5,45 -14,68 -10,22 -23,41 -39,57 -17,16 -34,27 -52,33 -18,6 -47,9 -85,9l-148 0 0 -3 4 0c8,0 13,-3 15,-9 2,-6 4,-17 4,-34l0 -229c0,-17 -1,-27 -4,-31 -3,-4 -9,-5 -18,-5zm107 4l-48 0 0 244c0,15 3,27 8,34 5,7 14,13 27,16 12,3 29,5 51,5 59,0 100,-15 124,-45 24,-30 36,-63 36,-99 0,-42 -16,-78 -49,-109 -33,-31 -82,-46 -148,-46z"/>
   <path id="3" class="fil5" d="M2993 563l-93 0 -47 119c-3,9 -5,14 -5,16 0,5 3,7 10,7l0 3 -47 0 0 -3c6,0 12,-2 16,-5 4,-3 9,-11 14,-24l114 -288 6 0 112 278c0,1 3,8 9,20 6,12 15,18 26,18l0 3 -73 0 0 -3c7,0 10,-3 10,-8 0,-4 -2,-9 -5,-17 -1,-1 -1,-1 -1,-3 0,-1 -1,-2 -1,-2l-45 -112zm-89 -9l85 0 -43 -107 -43 107z"/>
   <path id="4" class="fil5" d="M3127 396l0 -3 144 0c37,0 66,3 87,9 21,6 40,15 56,27 16,12 28,28 38,48 9,19 14,41 14,65 0,23 -5,45 -14,68 -10,22 -23,41 -39,57 -17,16 -34,27 -52,33 -18,6 -47,9 -85,9l-148 0 0 -3 4 0c8,0 13,-3 15,-9 2,-6 4,-17 4,-34l0 -229c0,-17 -1,-27 -4,-31 -3,-4 -9,-5 -18,-5zm107 4l-48 0 0 244c0,15 3,27 8,34 5,7 14,13 27,16 12,3 29,5 51,5 59,0 100,-15 124,-45 24,-30 36,-63 36,-99 0,-42 -16,-78 -49,-109 -33,-31 -82,-46 -148,-46z"/>
   <path id="5" class="fil5" d="M3663 563l-93 0 -47 119c-3,9 -5,14 -5,16 0,5 3,7 10,7l0 3 -47 0 0 -3c6,0 12,-2 16,-5 4,-3 9,-11 14,-24l114 -288 6 0 112 278c0,1 3,8 9,20 6,12 15,18 26,18l0 3 -73 0 0 -3c7,0 10,-3 10,-8 0,-4 -2,-9 -5,-17 -1,-1 -1,-1 -1,-3 0,-1 -1,-2 -1,-2l-45 -112zm-89 -9l85 0 -43 -107 -43 107zm122 -228l9 0c0,13 -4,23 -14,32 -9,9 -20,13 -33,13 -10,0 -20,-3 -31,-9 -11,-6 -19,-10 -23,-11 -4,-2 -9,-3 -13,-3 -6,0 -11,2 -16,6 -4,4 -7,9 -7,17l-9 0c0,-14 4,-25 13,-33 9,-8 20,-12 31,-12 4,0 8,1 13,2 5,1 13,5 26,11 13,6 22,9 29,9 13,0 22,-8 25,-23z"/>
   <path id="6" class="fil5" d="M3971 388c44,0 80,13 108,40 28,27 42,60 42,101 0,52 -16,95 -49,131 -33,35 -76,53 -129,53 -44,0 -79,-14 -107,-43 -28,-29 -42,-63 -42,-103 0,-27 7,-55 20,-83 13,-28 34,-52 60,-69 27,-18 59,-27 96,-27zm-1 308c22,0 43,-6 64,-17 21,-12 38,-28 50,-48 12,-20 18,-41 18,-63 0,-31 -8,-58 -24,-83 -16,-25 -37,-45 -63,-59 -26,-14 -50,-21 -72,-21 -31,0 -59,12 -85,35 -25,24 -38,53 -38,88 0,45 16,84 47,118 31,34 66,51 104,51z"/>
   <path id="7" class="fil5" d="M4933 409l12 34 -3 0c-30,-30 -66,-45 -108,-45 -43,0 -77,13 -104,38 -26,26 -40,56 -40,93 0,22 6,48 18,77 12,29 30,53 56,72 25,19 56,28 92,28 24,0 47,-4 69,-11 23,-8 40,-18 51,-31l3 1 -22 34c-36,8 -59,12 -69,14 -11,1 -25,2 -43,2 -66,0 -113,-15 -142,-46 -28,-31 -43,-67 -43,-110 0,-29 7,-57 22,-83 15,-27 36,-48 63,-63 27,-15 59,-23 94,-23 18,0 33,2 46,5 13,3 24,7 32,10l14 5c0,0 1,0 1,0z"/>
   <path id="8" class="fil5" d="M4999 396l0 -3 198 0 0 43 -3 0c-4,-16 -8,-26 -11,-29 -3,-3 -10,-4 -22,-4l-104 0 0 141 97 0c10,0 16,-1 18,-3 3,-2 4,-4 4,-8l3 0 0 30 -3 0c-1,-4 -2,-7 -5,-8 -3,-1 -8,-2 -15,-2l-99 0 0 97c0,15 1,25 4,32 3,6 7,11 13,12 6,2 15,2 27,2l56 0c18,0 29,-1 34,-2 5,-1 9,-4 12,-7 3,-4 6,-12 8,-24l3 0 0 43 -216 0 0 -3c7,0 13,-2 17,-4 4,-2 6,-8 6,-18l0 -255c0,-12 -1,-20 -3,-24 -2,-5 -8,-7 -19,-7z"/>
   <path id="9" class="fil5" d="M5225 708l0 -3c10,0 16,-2 19,-6 3,-4 4,-10 4,-19l0 -258c0,-9 -1,-16 -3,-20 -2,-4 -9,-6 -21,-6l0 -3 84 0 0 3c-8,0 -13,1 -16,3 -3,2 -5,4 -6,7 -1,3 -1,9 -1,18l0 221c0,19 5,32 14,40 9,8 25,12 47,12l38 0c19,0 32,-5 41,-14 9,-9 13,-26 14,-51l3 0 0 76 -217 0z"/>
   <path id="10" class="fil5" d="M5473 396l0 -3 198 0 0 43 -3 0c-4,-16 -8,-26 -11,-29 -3,-3 -10,-4 -22,-4l-104 0 0 141 97 0c10,0 16,-1 18,-3 3,-2 4,-4 4,-8l3 0 0 30 -3 0c-1,-4 -2,-7 -5,-8 -3,-1 -8,-2 -15,-2l-99 0 0 97c0,15 1,25 4,32 3,6 7,11 13,12 6,2 15,2 27,2l56 0c18,0 29,-1 34,-2 5,-1 9,-4 12,-7 3,-4 6,-12 8,-24l3 0 0 43 -216 0 0 -3c7,0 13,-2 17,-4 4,-2 6,-8 6,-18l0 -255c0,-12 -1,-20 -3,-24 -2,-5 -8,-7 -19,-7z"/>
   <path id="11" class="fil5" d="M5862 397l15 39 -3 0c0,0 -4,-4 -12,-12 -8,-8 -17,-15 -27,-19 -10,-4 -22,-7 -34,-7 -21,0 -38,6 -51,18 -13,12 -19,27 -19,44 0,12 3,22 9,30 6,9 18,17 37,24 32,11 54,19 66,24 12,6 23,15 34,28 11,13 17,30 17,51 0,9 -1,17 -3,25 -2,8 -5,15 -10,22 -4,7 -10,14 -16,20 -6,6 -12,10 -19,13 -6,3 -17,5 -30,7 -14,2 -23,2 -27,2l-84 0 0 -91 3 0c0,30 7,51 21,63 14,12 36,18 65,18 27,0 47,-6 61,-19 14,-13 21,-28 21,-46 0,-11 -2,-20 -7,-28 -5,-8 -12,-14 -20,-20 -9,-6 -25,-13 -49,-21 -24,-8 -41,-16 -51,-22 -10,-6 -18,-16 -24,-29 -7,-13 -10,-26 -10,-39 0,-24 8,-45 25,-61 17,-17 39,-25 66,-25 11,0 22,1 34,4 12,2 19,4 21,5 1,0 1,0 2,0z"/>
   <path id="12" class="fil5" d="M6168 383l-15 38 -3 0c1,-2 1,-5 1,-9 0,-3 -1,-5 -4,-6 -2,-1 -6,-1 -11,-1l-82 0 0 269c0,11 1,19 3,23 2,4 4,7 7,8 3,1 8,2 15,2l0 3 -85 0 0 -3c11,-1 17,-3 20,-6 3,-3 4,-11 4,-21l0 -274 -79 0c-8,0 -13,0 -16,1 -2,1 -4,3 -4,7 0,2 1,5 2,9l-3 0 -15 -38 3 0c3,5 5,8 8,9 2,1 8,2 16,2l209 0c8,0 14,-1 18,-2 4,-1 6,-4 8,-9l3 0z"/>
   <path id="13" class="fil5" d="M6267 393l0 3c-4,0 -9,0 -14,2 -5,2 -8,4 -9,8 -1,3 -1,11 -1,23l0 242c0,13 1,21 2,24 1,3 3,5 6,7 3,2 8,3 16,3l0 3 -84 0 0 -3c11,0 17,-2 20,-6 3,-4 4,-13 4,-28l0 -239c0,-15 -1,-25 -4,-29 -3,-5 -9,-7 -19,-6l0 -3 84 0z"/>
   <path id="14" class="fil5" d="M6465 563l-93 0 -47 119c-3,9 -5,14 -5,16 0,5 3,7 10,7l0 3 -47 0 0 -3c6,0 12,-2 16,-5 4,-3 9,-11 14,-24l114 -288 6 0 112 278c0,1 3,8 9,20 6,12 15,18 26,18l0 3 -73 0 0 -3c7,0 10,-3 10,-8 0,-4 -2,-9 -5,-17 -1,-1 -1,-1 -1,-3 0,-1 -1,-2 -1,-2l-45 -112zm-89 -9l85 0 -43 -107 -43 107z"/>
   <path id="15" class="fil5" d="M6587 708l0 -3c10,0 16,-2 19,-6 3,-4 4,-10 4,-19l0 -258c0,-9 -1,-16 -3,-20 -2,-4 -9,-6 -21,-6l0 -3 84 0 0 3c-8,0 -13,1 -16,3 -3,2 -5,4 -6,7 -1,3 -1,9 -1,18l0 221c0,19 5,32 14,40 9,8 25,12 47,12l38 0c19,0 32,-5 41,-14 9,-9 13,-26 14,-51l3 0 0 76 -217 0z"/>
   <polygon class="fil2 str1" points="4593,385 4610,407 4637,398 4620,420 4636,441 4609,434 4592,456 4593,429 4565,421 4593,412 "/>
   <g id="_704693872">
    <path class="fil4" d="M4154 706c145,-1 314,-12 457,0l21 3c-144,23 -330,21 -478,27 -5,0 -9,-7 -9,-15 0,-8 4,-15 9,-15z"/>
   </g>
   <path class="fil3" d="M4154 721c7,0 474,-13 478,-12"/>
   <g id="_704693264">
    <path class="fil4" d="M4332 717c-110,-77 64,-281 238,-287l-30 7c-123,34 -280,202 -190,261 7,4 8,11 3,17 -5,5 -14,6 -21,3z"/>
   </g>
   <path class="fil3" d="M4341 708c-97,-57 61,-267 229,-278"/>
   <path class="fil6" d="M4170 859l9 -1c0,4 1,7 3,9 2,2 4,4 7,6 3,1 7,2 11,2 4,0 7,-1 10,-2 3,-1 5,-3 6,-5 1,-2 2,-4 2,-6 0,-2 -1,-4 -2,-6 -1,-2 -4,-3 -7,-4 -2,-1 -6,-2 -13,-4 -7,-2 -12,-3 -14,-5 -4,-2 -6,-4 -8,-7 -2,-3 -3,-6 -3,-9 0,-4 1,-7 3,-11 2,-3 5,-6 9,-7 4,-2 9,-3 14,-3 6,0 10,1 15,3 4,2 7,4 10,8 2,3 3,7 4,12l-9 1c-1,-5 -2,-8 -5,-11 -3,-2 -7,-4 -13,-4 -6,0 -10,1 -13,3 -3,2 -4,5 -4,8 0,3 1,5 3,7 2,2 7,4 15,5 8,2 14,3 16,5 4,2 8,5 10,8 2,3 3,7 3,11 0,4 -1,8 -3,11 -2,4 -6,6 -10,8 -4,2 -9,3 -14,3 -7,0 -12,-1 -17,-3 -5,-2 -8,-5 -11,-9 -3,-4 -4,-8 -4,-13z"/>
   <polygon id="1" class="fil6" points="4272,883 4272,809 4282,809 4282,839 4321,839 4321,809 4331,809 4331,883 4321,883 4321,848 4282,848 4282,883 "/>
   <polygon id="2" class="fil6" points="4378,883 4378,809 4388,809 4388,883 "/>
   <polygon id="3" class="fil6" points="4434,883 4434,809 4444,809 4483,867 4483,809 4493,809 4493,883 4483,883 4444,825 4444,883 "/>
   <polygon id="4" class="fil6" points="4539,883 4539,809 4593,809 4593,817 4549,817 4549,840 4590,840 4590,849 4549,849 4549,874 4594,874 4594,883 "/>
   <polygon id="5" class="fil6" points="4174,999 4174,925 4184,925 4184,956 4222,956 4222,925 4232,925 4232,999 4222,999 4222,964 4184,964 4184,999 "/>
   <path id="6" class="fil6" d="M4261 999l29 -74 11 0 30 74 -11 0 -9 -23 -31 0 -8 23 -10 0zm21 -31l25 0 -8 -21c-2,-6 -4,-11 -5,-16 -1,5 -2,10 -4,14l-8 22z"/>
   <path id="7" class="fil6" d="M4359 999l0 -74 28 0c5,0 9,0 11,1 4,1 7,2 9,3 2,2 4,4 6,7 2,3 2,6 2,10 0,6 -2,12 -6,16 -4,4 -11,7 -22,7l-19 0 0 30 -10 0zm10 -39l19 0c6,0 11,-1 14,-4 3,-2 4,-6 4,-10 0,-3 -1,-6 -2,-8 -2,-2 -4,-4 -6,-4 -2,0 -5,-1 -9,-1l-19 0 0 27z"/>
   <path id="8" class="fil6" d="M4449 999l0 -74 28 0c5,0 9,0 11,1 4,1 7,2 9,3 2,2 4,4 6,7 2,3 2,6 2,10 0,6 -2,12 -6,16 -4,4 -11,7 -22,7l-19 0 0 30 -10 0zm10 -39l19 0c6,0 11,-1 14,-4 3,-2 4,-6 4,-10 0,-3 -1,-6 -2,-8 -2,-2 -4,-4 -6,-4 -2,0 -5,-1 -9,-1l-19 0 0 27z"/>
   <path id="9" class="fil6" d="M4560 999l0 -32 -29 -43 12 0 15 23c3,4 5,8 8,13 2,-4 5,-8 8,-13l14 -22 11 0 -30 43 0 32 -10 0z"/>
   <path id="10" class="fil6" d="M4173 1116l0 -74 28 0c5,0 9,0 11,1 4,1 7,2 9,3 2,2 4,4 6,7 2,3 2,6 2,10 0,6 -2,12 -6,16 -4,4 -11,7 -22,7l-19 0 0 30 -10 0zm10 -39l19 0c6,0 11,-1 14,-4 3,-2 4,-6 4,-10 0,-3 -1,-6 -2,-8 -2,-2 -4,-4 -6,-4 -2,0 -5,-1 -9,-1l-19 0 0 27z"/>
   <polygon id="11" class="fil6" points="4247,1116 4247,1041 4300,1041 4300,1050 4257,1050 4257,1073 4298,1073 4298,1081 4257,1081 4257,1107 4302,1107 4302,1116 "/>
   <path id="12" class="fil6" d="M4316 1079c0,-12 3,-22 10,-29 7,-7 15,-10 26,-10 7,0 13,2 19,5 6,3 10,8 13,14 3,6 4,13 4,20 0,8 -2,14 -5,20 -3,6 -7,10 -13,14 -6,3 -12,5 -18,5 -7,0 -13,-2 -19,-5 -6,-3 -10,-8 -13,-14 -3,-6 -4,-12 -4,-19zm10 0c0,9 2,16 7,21 5,5 11,8 18,8 7,0 14,-3 18,-8 5,-5 7,-13 7,-22 0,-6 -1,-11 -3,-16 -2,-5 -5,-8 -9,-10 -4,-2 -8,-4 -13,-4 -7,0 -13,2 -18,7 -5,5 -8,13 -8,24z"/>
   <path id="13" class="fil6" d="M4404 1116l0 -74 28 0c5,0 9,0 11,1 4,1 7,2 9,3 2,2 4,4 6,7 2,3 2,6 2,10 0,6 -2,12 -6,16 -4,4 -11,7 -22,7l-19 0 0 30 -10 0zm10 -39l19 0c6,0 11,-1 14,-4 3,-2 4,-6 4,-10 0,-3 -1,-6 -2,-8 -2,-2 -4,-4 -6,-4 -2,0 -5,-1 -9,-1l-19 0 0 27z"/>
   <polygon id="14" class="fil6" points="4477,1116 4477,1041 4487,1041 4487,1107 4523,1107 4523,1116 "/>
   <polygon id="15" class="fil6" points="4539,1116 4539,1041 4593,1041 4593,1050 4549,1050 4549,1073 4590,1073 4590,1081 4549,1081 4549,1107 4594,1107 4594,1116 "/>
   <polygon class="fil6" points="2965,929 2964,932 2964,934 2962,939 2960,942 2959,944 2957,946 2955,948 2953,951 2950,952 2944,954 2942,954 2939,953 2933,953 2931,952 2928,950 2924,948 2920,945 2916,941 2914,939 2912,937 2909,934 2908,931 2906,927 2905,923 2905,918 2905,911 2906,907 2907,902 2909,898 2909,894 2910,890 2912,888 2912,887 2914,886 2918,884 2920,883 2924,882 2929,880 2933,879 2935,877 2939,878 2943,878 2946,880 2948,880 2951,883 2954,888 2954,890 2952,890 2951,893 2948,894 2945,892 2941,892 2938,890 2935,890 2931,891 2927,892 2923,894 2921,895 2920,898 2918,901 2916,906 2915,911 2915,914 2915,918 2915,923 2915,927 2917,931 2919,934 2925,940 2928,943 2930,944 2937,945 2942,943 2947,941 2950,938 2952,935 2956,931 2958,930 2960,930 2962,927 2963,926 2965,926 "/>
   <path id="1" class="fil6" d="M3035 924l0 1 -1 0 0 0 0 0 0 -1 0 0 1 0zm1 38l-1 1 -1 0 0 -1 -1 -1 -1 -2 -1 -2 -2 -3 -1 -3 -1 -2 -1 -1 -2 -5 -1 -2 -1 -2 -1 -2 -1 -1 -3 -3 -1 -2 -2 -2 -3 -1 -3 0 -3 1 -2 1 -2 2 -2 1 -1 1 -2 1 -4 2 -1 1 -1 3 0 2 -1 1 0 2 0 2 0 4 0 3 -1 3 -1 2 -1 2 -2 2 -2 0 -2 0 -1 -1 -1 0 -1 -1 -1 -1 0 -1 -1 -1 0 -3 1 -2 0 -1 0 -1 1 0 0 -1 1 -1 1 -1 1 -2 1 -1 1 -2 0 -3 1 0 0 -2 1 -3 0 -2 -1 -3 -1 -2 0 -3 0 -2 0 -1 0 -1 0 -1 2 -2 0 -1 1 -1 1 -2 2 -3 0 -2 0 -1 0 -1 1 -3 1 -3 1 -4 0 -2 1 -1 0 -3 0 -3 0 -3 1 -2 1 -2 1 -1 0 -2 1 -1 0 -1 0 -1 0 -2 -1 -2 0 -2 -1 -1 0 -2 1 0 1 -1 1 0 1 -1 2 0 2 1 1 2 1 0 1 2 1 2 1 2 1 3 1 2 0 1 1 1 1 1 1 2 0 2 1 2 0 1 1 1 1 2 1 2 0 3 1 2 1 3 0 1 1 2 1 3 1 3 0 2 1 2 2 1 2 1 3 0 2 0 2 1 0 1 1 1 -1 0 0 1 -1 1 -1 0 -1 1 -2 0 -2 1 -1 1 0 2 0 2 1 2 1 2 1 3 1 2 1 3 1 2 1 3 1 2 1 4 1 0 1 2 1 2 0 1 1 1 1 2zm0 5c0,0 0,0 -1,0l0 0 0 0 0 0 1 0 0 1zm-52 -49l0 1 -1 0 -1 -1 0 -1 1 -1 1 0 0 0 0 1zm-8 32l-1 0 -1 0 0 -1 0 0 1 0 0 0 0 0zm2 17l0 1 -1 0 0 -1 1 0 1 0 0 1zm33 -48l-1 -1 -1 -2 0 -2 -1 -1 0 -1 -1 -1 0 -3 -2 -2 1 -1 -1 -2 -1 -5 -1 -2 0 -2 -1 -2 -1 -1 -1 -3 -3 3 0 2 -1 1 0 2 0 1 -1 3 0 2 0 1 -1 1 0 2 0 4 0 2 -1 2 0 2 -1 2 1 2 3 1 3 1 3 1 1 1 3 1 2 0 1 0 1 -1zm-6 0l-1 0 -1 0 0 -1 1 0 0 0 0 0 0 1z"/>
   <path id="2" class="fil6" d="M3067 866l-1 1 -1 0 0 -2 1 0 0 1zm43 55l-1 1 -1 -1 1 -1 1 1zm-2 45l0 1 -1 1 -1 -2 -1 -3 -1 -1 0 -1 0 -5 -2 -5 -1 -5 -1 -4 -1 -5 0 -4 -1 -2 -1 -4 0 -3 -1 -3 0 -5 -1 -2 0 -3 0 -4 1 -4 1 -2 -1 -3 0 -3 0 -3 -2 -1 -1 -1 -2 2 -2 3 -2 3 -1 4 -1 4 -1 4 -1 4 -1 4 -1 2 -1 1 -1 1 -2 -1 -1 -2 -2 -3 -1 -3 -1 -6 -1 -3 -1 -4 -1 -3 -1 -3 -1 -2 -1 -1 -2 -1 -1 2 -1 3 -1 4 -1 8 -1 4 0 2 -1 6 -1 7 0 4 1 1 0 3 1 2 -1 2 -1 2 -3 0 -2 0 -3 0 -2 -1 -1 -1 -1 -3 1 -5 1 -3 1 -1 0 -7 2 -8 0 -3 2 -3 0 -2 2 -3 0 -2 4 -9 1 -2 1 -1 0 -2 2 -2 2 -3 2 -1 2 0 1 1 1 2 1 3 1 3 1 4 1 3 1 4 1 3 1 4 0 3 1 3 2 2 1 1 1 -1 1 -2 1 -3 1 -4 2 -4 1 -3 1 -2 -1 -1 -1 -2 0 -3 1 -3 1 -3 1 -3 2 -3 1 -1 2 -2 2 -1 1 -1 2 1 2 0 2 1 2 2 1 2 0 3 0 3 0 3 0 4 0 7 0 4 1 7 0 4 0 5 0 4 0 4 0 4 -1 2 1 3 0 7 1 1 0 5 1 4 1 7 0 3 0 5zm-56 -21l-1 1 -1 0 0 -2 1 0 1 1z"/>
   <path id="3" class="fil6" d="M3162 948l-1 1 -1 1 -4 0 -4 1 -3 1 -2 1 -2 1 -2 1 -1 2 0 1 0 2 0 1 -1 1 -1 0 -1 -1 -1 -1 -1 0 -2 1 -1 1 -1 1 -2 1 -2 1 -2 0 -2 -1 -2 -1 -1 -2 -1 -1 -1 -1 0 -3 1 -2 2 -2 2 -1 3 -2 3 -1 3 0 1 0 1 -1 1 0 1 -1 -1 -3 0 -2 -1 -2 0 -3 0 -2 0 -2 0 -3 0 -2 0 -2 -1 -4 0 -12 -1 -1 1 -2 -1 -5 0 -7 -1 -2 1 -2 -2 0 -2 0 -2 0 -5 1 -1 0 -1 1 -3 0 -2 0 -2 -1 -1 -1 -1 -1 0 -2 1 -1 2 -1 2 1 2 1 2 0 3 0 4 0 4 0 3 0 0 -2 1 -1 0 -1 0 -1 -1 -2 0 -2 1 -1 -1 -2 1 -1 2 -1 2 0 2 0 0 2 0 2 0 1 0 2 0 2 -1 2 0 1 1 1 1 0 3 0 2 1 3 0 2 0 2 0 1 0 0 1 -1 0 -3 0 -2 0 -3 0 -3 0 -2 0 -2 1 0 2 0 3 -1 3 0 2 -1 2 1 2 -1 3 0 2 0 4 -1 2 0 1 0 3 0 3 0 3 0 4 0 9 0 3 0 3 0 3 2 1 2 0 2 1 3 1 2 0 3 1 2 1 1 0 2 0 1 1 0 1zm3 -5l-1 1 -1 -1 1 -1 1 1 0 1z"/>
   <path id="4" class="fil6" d="M3206 884l-2 1 0 -2 1 0 0 1zm24 -11l0 2 0 2 -1 1 0 1 -1 2 -1 2 -1 2 -1 4 0 2 -1 3 0 2 -1 3 0 3 -1 2 -1 3 0 3 -4 8 -1 1 0 2 -1 2 -1 3 -1 2 0 3 -2 4 -1 2 0 3 0 2 -1 2 0 2 0 2 0 1 -1 1 -1 3 -1 0 -1 0 -1 -2 -3 -1 -1 -2 -1 -2 -1 -2 0 -2 -1 -2 1 -2 -1 -2 0 -4 -2 -4 -1 -4 -1 -3 -1 -5 -1 -2 -1 -2 -1 -3 -2 -6 -2 -3 -1 3 -1 1 0 7 -1 4 0 3 -1 4 -1 4 -1 2 -1 3 -1 4 0 8 -1 2 1 2 -1 2 -2 1 -3 0 -2 -1 -1 -2 -1 -3 -1 -3 0 -2 2 -3 1 -1 1 -1 1 -3 0 -4 1 -3 0 -3 1 -2 -1 -6 -1 -2 0 -4 1 -4 1 -2 1 -3 2 -2 1 -8 2 -2 1 -3 2 -2 1 -1 1 -1 0 -2 1 -1 1 0 1 1 0 2 1 3 1 4 1 9 1 4 1 2 0 3 0 2 1 4 0 4 2 3 1 4 0 4 1 3 1 4 1 2 1 1 1 0 1 -1 2 -1 1 -3 1 -1 0 -1 1 -3 0 -2 0 -3 1 -1 1 -2 1 -2 1 -2 1 -1 0 -2 1 -2 1 -2 1 -3 1 -2 0 -4 -1 -3 -1 -3 -1 -2 0 -3 0 -3 1 -1 0 -2 1 -1 1 -4 1 -2 1 1 2 -1 1 -2 2 -1 2 -1 1 1 1 2 1 0 0 2zm-53 84l-1 1 -1 -1 0 -1 1 0 0 1z"/>
   <path id="5" class="fil6" d="M3279 959l0 2 -1 1 -1 0 -2 -2 -2 -2 -1 -3 -1 -3 0 -2 0 -2 -1 -2 -1 -4 -1 -4 1 -2 -1 -1 0 -1 0 -2 0 -3 0 -3 1 -3 0 -3 0 -3 -3 -1 -3 -1 -3 0 -4 0 -3 0 -1 0 -4 1 -2 0 -1 1 0 2 0 2 0 6 0 4 0 4 -1 2 0 2 -1 1 0 2 0 3 -1 1 0 2 -1 3 0 2 0 1 0 3 0 3 1 2 1 2 0 1 -1 0 -1 0 -1 -1 0 -1 -1 -1 -1 -3 0 -1 0 -2 0 -2 0 -2 1 -3 -1 -1 1 -2 0 -21 -1 -2 1 -2 -1 -1 0 -1 -1 -2 -2 -2 -2 -1 -1 -1 0 -1 1 -2 1 -1 2 -1 1 -1 0 -3 0 -3 0 -5 0 -2 0 -2 1 -2 -1 -2 0 -2 1 -2 -1 -2 0 -6 1 -2 2 -2 3 0 2 0 3 2 1 3 0 3 -1 3 -2 4 -2 5 -1 5 0 4 -1 6 0 2 -1 1 1 1 2 1 3 1 4 1 4 0 3 1 3 0 3 1 2 0 0 -2 1 -2 -1 -2 0 -3 0 -3 0 -4 0 -4 1 -4 1 -3 1 -3 1 -3 0 -2 1 -2 0 -2 1 -2 1 -1 1 0 1 1 0 1 -1 1 0 2 0 3 -1 2 -1 4 -1 4 0 2 -1 4 1 2 -1 2 0 10 -1 5 0 4 0 4 0 4 0 3 0 4 0 4 0 4 0 4 1 3 1 3 1 3 1 3 1 2 1 2zm-10 -6l-1 1 -1 0 0 -1 1 -1 1 0 0 1zm-31 22l-1 1 -2 -1 1 -1 1 0 0 1z"/>
   <path id="6" class="fil6" d="M3351 924l0 1 -1 0 0 0 0 0 0 -1 0 0 1 0zm1 38l-1 1 -1 0 0 -1 -1 -1 -1 -2 -1 -2 -2 -3 -1 -3 -1 -2 -1 -1 -2 -5 -1 -2 -1 -2 -1 -2 -1 -1 -3 -3 -1 -2 -2 -2 -3 -1 -3 0 -3 1 -2 1 -2 2 -2 1 -1 1 -2 1 -4 2 -1 1 -1 3 0 2 -1 1 0 2 0 2 0 4 0 3 -1 3 -1 2 -1 2 -2 2 -2 0 -2 0 -1 -1 -1 0 -1 -1 -1 -1 0 -1 -1 -1 0 -3 1 -2 0 -1 0 -1 1 0 0 -1 1 -1 1 -1 1 -2 1 -1 1 -2 0 -3 1 0 0 -2 1 -3 0 -2 -1 -3 -1 -2 0 -3 0 -2 0 -1 0 -1 0 -1 2 -2 0 -1 1 -1 1 -2 2 -3 0 -2 0 -1 0 -1 1 -3 1 -3 1 -4 0 -2 1 -1 0 -3 0 -3 0 -3 1 -2 1 -2 1 -1 0 -2 1 -1 0 -1 0 -1 0 -2 -1 -2 0 -2 -1 -1 0 -2 1 0 1 -1 1 0 1 -1 2 0 2 1 1 2 1 0 1 2 1 2 1 2 1 3 1 2 0 1 1 1 1 1 1 2 0 2 1 2 0 1 1 1 1 2 1 2 0 3 1 2 1 3 0 1 1 2 1 3 1 3 0 2 1 2 2 1 2 1 3 0 2 0 2 1 0 1 1 1 -1 0 0 1 -1 1 -1 0 -1 1 -2 0 -2 1 -1 1 0 2 0 2 1 2 1 2 1 3 1 2 1 3 1 2 1 3 1 2 1 4 1 0 1 2 1 2 0 1 1 1 1 2zm0 5c0,0 0,0 -1,0l0 0 0 0 0 0 1 0 0 1zm-52 -49l0 1 -1 0 -1 -1 0 -1 1 -1 1 0 0 0 0 1zm-8 32l-1 0 -1 0 0 -1 0 0 1 0 0 0 0 0zm2 17l0 1 -1 0 0 -1 1 0 1 0 0 1zm33 -48l-1 -1 -1 -2 0 -2 -1 -1 0 -1 -1 -1 0 -3 -2 -2 1 -1 -1 -2 -1 -5 -1 -2 0 -2 -1 -2 -1 -1 -1 -3 -3 3 0 2 -1 1 0 2 0 1 -1 3 0 2 0 1 -1 1 0 2 0 4 0 2 -1 2 0 2 -1 2 1 2 3 1 3 1 3 1 1 1 3 1 2 0 1 0 1 -1zm-6 0l-1 0 -1 0 0 -1 1 0 0 0 0 0 0 1z"/>
   <path id="7" class="fil6" d="M2940 1051l-2 1 0 -2 1 0 0 1zm24 -11l0 2 0 2 -1 1 0 1 -1 2 -1 2 -1 2 -1 4 0 2 -1 3 0 2 -1 3 0 3 -1 2 -1 3 0 3 -4 8 -1 1 0 2 -1 2 -1 3 -1 2 0 3 -2 4 -1 2 0 3 0 2 -1 2 0 2 0 2 0 1 -1 1 -1 3 -1 0 -1 0 -1 -2 -3 -1 -1 -2 -1 -2 -1 -2 0 -2 -1 -2 1 -2 -1 -2 0 -4 -2 -4 -1 -4 -1 -3 -1 -5 -1 -2 -1 -2 -1 -3 -2 -6 -2 -3 -1 3 -1 1 0 7 -1 4 0 3 -1 4 -1 4 -1 2 -1 3 -1 4 0 8 -1 2 1 2 -1 2 -2 1 -3 0 -2 -1 -1 -2 -1 -3 -1 -3 0 -2 2 -3 1 -1 1 -1 1 -3 0 -4 1 -3 0 -3 1 -2 -1 -6 -1 -2 0 -4 1 -4 1 -2 1 -3 2 -2 1 -8 2 -2 1 -3 2 -2 1 -1 1 -1 0 -2 1 -1 1 0 1 1 0 2 1 3 1 4 1 9 1 4 1 2 0 3 0 2 1 4 0 4 2 3 1 4 0 4 1 3 1 4 1 2 1 1 1 0 1 -1 2 -1 1 -3 1 -1 0 -1 1 -3 0 -2 0 -3 1 -1 1 -2 1 -2 1 -2 1 -1 0 -2 1 -2 1 -2 1 -3 1 -2 0 -4 -1 -3 -1 -3 -1 -2 0 -3 0 -3 1 -1 0 -2 1 -1 1 -4 1 -2 1 1 2 -1 1 -2 2 -1 2 -1 1 1 1 2 1 0 0 2zm-53 84l-1 1 -1 -1 0 -1 1 0 0 1z"/>
   <path id="8" class="fil6" d="M3026 1091l0 1 -1 0 0 0 0 0 0 -1 0 0 1 0zm1 38l-1 1 -1 0 0 -1 -1 -1 -1 -2 -1 -2 -2 -3 -1 -3 -1 -2 -1 -1 -2 -5 -1 -2 -1 -2 -1 -2 -1 -1 -3 -3 -1 -2 -2 -2 -3 -1 -3 0 -3 1 -2 1 -2 2 -2 1 -1 1 -2 1 -4 2 -1 1 -1 3 0 2 -1 1 0 2 0 2 0 4 0 3 -1 3 -1 2 -1 2 -2 2 -2 0 -2 0 -1 -1 -1 0 -1 -1 -1 -1 0 -1 -1 -1 0 -3 1 -2 0 -1 0 -1 1 0 0 -1 1 -1 1 -1 1 -2 1 -1 1 -2 0 -3 1 0 0 -2 1 -3 0 -2 -1 -3 -1 -2 0 -3 0 -2 0 -1 0 -1 0 -1 2 -2 0 -1 1 -1 1 -2 2 -3 0 -2 0 -1 0 -1 1 -3 1 -3 1 -4 0 -2 1 -1 0 -3 0 -3 0 -3 1 -2 1 -2 1 -1 0 -2 1 -1 0 -1 0 -1 0 -2 -1 -2 0 -2 -1 -1 0 -2 1 0 1 -1 1 0 1 -1 2 0 2 1 1 2 1 0 1 2 1 2 1 2 1 3 1 2 0 1 1 1 1 1 1 2 0 2 1 2 0 1 1 1 1 2 1 2 0 3 1 2 1 3 0 1 1 2 1 3 1 3 0 2 1 2 2 1 2 1 3 0 2 0 2 1 0 1 1 1 -1 0 0 1 -1 1 -1 0 -1 1 -2 0 -2 1 -1 1 0 2 0 2 1 2 1 2 1 3 1 2 1 3 1 2 1 3 1 2 1 4 1 0 1 2 1 2 0 1 1 1 1 2zm0 5c0,0 0,0 -1,0l0 0 0 0 0 0 1 0 0 1zm-52 -49l0 1 -1 0 -1 -1 0 -1 1 -1 1 0 0 0 0 1zm-8 32l-1 0 -1 0 0 -1 0 0 1 0 0 0 0 0zm2 17l0 1 -1 0 0 -1 1 0 1 0 0 1zm33 -48l-1 -1 -1 -2 0 -2 -1 -1 0 -1 -1 -1 0 -3 -2 -2 1 -1 -1 -2 -1 -5 -1 -2 0 -2 -1 -2 -1 -1 -1 -3 -3 3 0 2 -1 1 0 2 0 1 -1 3 0 2 0 1 -1 1 0 2 0 4 0 2 -1 2 0 2 -1 2 1 2 3 1 3 1 3 1 1 1 3 1 2 0 1 0 1 -1zm-6 0l-1 0 -1 0 0 -1 1 0 0 0 0 0 0 1z"/>
   <path id="9" class="fil6" d="M3132 1047l-1 1 -1 0 -3 0 -4 0 -4 0 -5 0 -6 1 -5 0 -4 1 -4 1 -4 1 -3 1 -3 1 -1 1 -2 1 -2 1 -3 1 -4 1 -4 0 -3 -1 -2 -1 -2 -1 -2 -1 0 -2 0 -2 1 -2 1 -1 2 -1 3 -1 3 -1 4 0 4 0 6 0 6 0 6 0 5 0 2 0 3 0 3 -1 3 1 3 0 3 0 5 1 3 0 4 2 1 1 0 1zm-50 -14l-1 1 -1 -1 1 -1 1 0 0 1zm16 25l-1 1 -1 3 0 2 0 3 0 3 0 2 -1 2 1 1 -1 2 0 2 0 2 -1 3 0 3 0 2 0 3 -1 3 0 3 0 2 0 3 0 3 0 3 0 3 0 3 0 3 0 3 0 3 0 3 -1 1 0 -1 0 -1 0 -2 0 -3 -1 -1 0 -3 0 -1 0 -2 0 -7 -1 -2 0 -2 0 -3 0 -3 0 -3 0 -3 0 -3 0 -4 0 -4 0 -6 0 -2 1 -2 0 -3 0 -3 -1 -3 -1 -3 -1 -2 0 -2 0 -2 1 -1 2 -2 2 0 2 1 2 2 1 2 1 2z"/>
   <path id="10" class="fil6" d="M3177 1052l0 1 -1 0 -1 0 -2 -1 -2 -1 -4 0 -3 1 -3 1 -4 2 -3 1 -2 0 -2 1 -5 0 -4 0 -4 0 -4 1 -2 1 -1 2 -1 2 0 3 0 3 -1 6 0 1 -1 4 1 0 1 0 2 -1 2 -2 2 -1 4 0 6 0 4 0 1 1 1 1 3 0 1 1 1 0 3 1 3 0 0 1 0 0 -2 1 -1 0 -1 0 -4 0 -5 1 -5 1 -4 1 -4 0 -3 1 -3 -2 0 4 0 3 0 3 1 3 1 4 1 3 4 5 2 2 3 2 3 1 3 2 4 1 4 1 3 1 2 0 2 1 5 1 1 1 0 1 0 1 -1 0 -3 0 -3 0 -5 0 -4 0 -3 -1 -1 0 -2 0 -4 -1 -2 -1 -2 -2 -2 -1 -2 -1 -2 -3 -2 -3 0 -3 0 -2 -2 -3 0 -3 -1 -2 0 -4 -1 -2 0 -2 -1 -4 1 -2 -1 -2 0 -1 0 -2 1 -2 0 -2 1 -2 0 -3 0 -2 1 -2 0 -2 1 -1 0 -2 -1 -1 -2 -2 0 -1 0 -2 1 -3 1 -2 2 -2 2 -1 2 -1 3 1 3 1 4 0 5 0 7 0 4 0 3 1 3 0 3 0 2 1 2 1 1 0 3 1 2 1 1 1zm-42 66l0 1 -1 0 0 -1 1 -1 1 1z"/>
   <path id="11" class="fil6" d="M3237 1133l0 0 -1 0 -1 -1 -1 -1 -3 -3 -2 -2 -3 -3 -2 -3 -2 -3 -2 -2 -3 -3 -3 -3 -3 -3 -2 -3 -3 -4 -2 -4 -3 -3 -2 -3 -3 -2 -3 -2 -3 0 0 2 -1 3 -1 5 0 3 -1 3 -1 7 0 4 0 2 0 5 0 1 1 1 1 1 1 2 0 1 -1 1 -1 1 -1 0 -1 -1 -1 -1 -2 -3 0 -3 0 -4 0 -6 1 -3 0 -2 0 -3 0 -2 0 -2 0 -2 1 -3 0 -3 1 -3 0 -3 1 -2 0 -3 0 -3 0 -3 0 -3 1 -7 0 -3 0 -3 0 -4 1 -2 1 -2 -1 -2 1 -2 -1 -3 0 -2 1 -2 3 0 3 -2 3 0 4 0 4 0 4 0 2 1 2 1 2 1 2 2 1 2 1 3 1 3 0 2 1 3 0 3 0 1 0 3 -1 3 0 3 0 3 -1 2 -1 3 -2 2 -2 1 -2 2 -2 1 -2 1 0 3 1 2 1 2 0 2 2 4 3 5 1 2 1 3 2 3 1 2 2 3 1 3 1 3 2 3 1 2 2 3 3 2 2 2 1 2 1 1 0 1zm-43 -35l0 1 -1 0 0 -1 1 -1 0 1zm17 -39l-1 -3 1 -3 -1 -1 0 -5 -1 -2 -3 -1 -2 -1 -1 1 -1 0 -4 1 -1 1 -1 2 -1 2 -1 3 0 2 -1 7 -1 3 -1 3 0 3 0 2 0 2 1 1 2 1 2 -1 3 -1 4 -1 2 -1 2 -2 1 -2 0 -1 0 -1 0 -2 0 -2 2 -3zm-1 -4l-1 1 -1 -1 1 -1 1 0 0 1z"/>
   <path id="12" class="fil6" d="M3294 1133l0 0 -1 0 -1 -1 -1 -1 -3 -3 -2 -2 -3 -3 -2 -3 -2 -3 -2 -2 -3 -3 -3 -3 -3 -3 -2 -3 -3 -4 -2 -4 -3 -3 -2 -3 -3 -2 -3 -2 -3 0 0 2 -1 3 -1 5 0 3 -1 3 -1 7 0 4 0 2 0 5 0 1 1 1 1 1 1 2 0 1 -1 1 -1 1 -1 0 -1 -1 -1 -1 -2 -3 0 -3 0 -4 0 -6 1 -3 0 -2 0 -3 0 -2 0 -2 0 -2 1 -3 0 -3 1 -3 0 -3 1 -2 0 -3 0 -3 0 -3 0 -3 1 -7 0 -3 0 -3 0 -4 1 -2 1 -2 -1 -2 1 -2 -1 -3 0 -2 1 -2 3 0 3 -2 3 0 4 0 4 0 4 0 2 1 2 1 2 1 2 2 1 2 1 3 1 3 0 2 1 3 0 3 0 1 0 3 -1 3 0 3 0 3 -1 2 -1 3 -2 2 -2 1 -2 2 -2 1 -2 1 0 3 1 2 1 2 0 2 2 4 3 5 1 2 1 3 2 3 1 2 2 3 1 3 1 3 2 3 1 2 2 3 3 2 2 2 1 2 1 1 0 1zm-43 -35l0 1 -1 0 0 -1 1 -1 0 1zm17 -39l-1 -3 1 -3 -1 -1 0 -5 -1 -2 -3 -1 -2 -1 -1 1 -1 0 -4 1 -1 1 -1 2 -1 2 -1 3 0 2 -1 7 -1 3 -1 3 0 3 0 2 0 2 1 1 2 1 2 -1 3 -1 4 -1 2 -1 2 -2 1 -2 0 -1 0 -1 0 -2 0 -2 2 -3zm-1 -4l-1 1 -1 -1 1 -1 1 0 0 1z"/>
   <path id="13" class="fil6" d="M3351 1091l0 1 -1 0 0 0 0 0 0 -1 0 0 1 0zm1 38l-1 1 -1 0 0 -1 -1 -1 -1 -2 -1 -2 -2 -3 -1 -3 -1 -2 -1 -1 -2 -5 -1 -2 -1 -2 -1 -2 -1 -1 -3 -3 -1 -2 -2 -2 -3 -1 -3 0 -3 1 -2 1 -2 2 -2 1 -1 1 -2 1 -4 2 -1 1 -1 3 0 2 -1 1 0 2 0 2 0 4 0 3 -1 3 -1 2 -1 2 -2 2 -2 0 -2 0 -1 -1 -1 0 -1 -1 -1 -1 0 -1 -1 -1 0 -3 1 -2 0 -1 0 -1 1 0 0 -1 1 -1 1 -1 1 -2 1 -1 1 -2 0 -3 1 0 0 -2 1 -3 0 -2 -1 -3 -1 -2 0 -3 0 -2 0 -1 0 -1 0 -1 2 -2 0 -1 1 -1 1 -2 2 -3 0 -2 0 -1 0 -1 1 -3 1 -3 1 -4 0 -2 1 -1 0 -3 0 -3 0 -3 1 -2 1 -2 1 -1 0 -2 1 -1 0 -1 0 -1 0 -2 -1 -2 0 -2 -1 -1 0 -2 1 0 1 -1 1 0 1 -1 2 0 2 1 1 2 1 0 1 2 1 2 1 2 1 3 1 2 0 1 1 1 1 1 1 2 0 2 1 2 0 1 1 1 1 2 1 2 0 3 1 2 1 3 0 1 1 2 1 3 1 3 0 2 1 2 2 1 2 1 3 0 2 0 2 1 0 1 1 1 -1 0 0 1 -1 1 -1 0 -1 1 -2 0 -2 1 -1 1 0 2 0 2 1 2 1 2 1 3 1 2 1 3 1 2 1 3 1 2 1 4 1 0 1 2 1 2 0 1 1 1 1 2zm0 5c0,0 0,0 -1,0l0 0 0 0 0 0 1 0 0 1zm-52 -49l0 1 -1 0 -1 -1 0 -1 1 -1 1 0 0 0 0 1zm-8 32l-1 0 -1 0 0 -1 0 0 1 0 0 0 0 0zm2 17l0 1 -1 0 0 -1 1 0 1 0 0 1zm33 -48l-1 -1 -1 -2 0 -2 -1 -1 0 -1 -1 -1 0 -3 -2 -2 1 -1 -1 -2 -1 -5 -1 -2 0 -2 -1 -2 -1 -1 -1 -3 -3 3 0 2 -1 1 0 2 0 1 -1 3 0 2 0 1 -1 1 0 2 0 4 0 2 -1 2 0 2 -1 2 1 2 3 1 3 1 3 1 1 1 3 1 2 0 1 0 1 -1zm-6 0l-1 0 -1 0 0 -1 1 0 0 0 0 0 0 1z"/>
   <path class="fil6" d="M5452 952l0 2 -1 1 -1 1 -1 1 -2 0 -2 1 -2 1 -2 0 -3 0 -3 1 -2 0 -2 1 -2 1 -3 1 -2 1 -2 1 -4 0 -2 0 -3 0 -2 0 -2 0 -2 -1 -2 0 -1 0 -1 -1 0 -1 0 -2 0 -1 1 -1 0 -1 0 -1 0 -2 0 -2 1 -2 0 -3 0 -2 0 -2 0 -2 1 -2 0 -2 0 -1 0 -5 0 -2 0 -3 0 -2 0 -3 0 -2 0 -2 0 -2 0 -2 0 -2 0 -2 0 -2 0 -1 0 -1 0 -2 0 -1 1 -2 -1 -1 0 -2 0 -2 0 -2 0 -2 0 -2 1 -1 -1 -1 0 -1 1 -1 0 -1 1 -2 0 -2 0 -2 0 -1 1 -1 1 -1 1 -1 2 0 2 -1 2 0 1 1 1 1 2 1 1 2 1 2 0 1 -1 2 0 1 -2 1 -1 2 0 3 -1 2 0 2 0 2 -1 2 0 2 -1 2 -1 4 0 2 -1 2 0 1 -1 1 0 2 0 2 -1 4 0 2 -1 2 0 2 -1 2 0 2 0 2 0 1 0 2 -1 2 0 2 0 2 -1 2 0 2 0 3 0 2 0 1 0 1 0 1 0 2 0 1 1 0 1 -1 2 0 3 0 1 0 2 1 2 0 1 -1 2 0 2 -1 1 -1 2 0 3 0 2 0 3 -1 2 -1 2 -1 0 -1 2 -1 1 -1 2 0 1 1 1 1 1 1 0 1 0 2 0 2zm-9 -21l0 1 -1 0 -1 -1 1 -1 1 1 0 1zm-39 -19l0 1 -1 1 -1 -1 1 -1 1 1z"/>
   <path id="1" class="fil6" d="M5496 952l-1 1 -1 1 -4 0 -4 1 -3 1 -2 1 -2 1 -2 1 -1 2 0 1 0 2 0 1 -1 1 -1 0 -1 -1 -1 -1 -1 0 -2 1 -1 1 -1 1 -2 1 -2 1 -2 0 -2 -1 -2 -1 -1 -2 -1 -1 -1 -1 0 -3 1 -2 2 -2 2 -1 3 -2 3 -1 3 0 1 0 1 -1 1 0 1 -1 -1 -3 0 -2 -1 -2 0 -3 0 -2 0 -2 0 -3 0 -2 0 -2 -1 -4 0 -12 -1 -1 1 -2 -1 -5 0 -7 -1 -2 1 -2 -2 0 -2 0 -2 0 -5 1 -1 0 -1 1 -3 0 -2 0 -2 -1 -1 -1 -1 -1 0 -2 1 -1 2 -1 2 1 2 1 2 0 3 0 4 0 4 0 3 0 0 -2 1 -1 0 -1 0 -1 -1 -2 0 -2 1 -1 -1 -2 1 -1 2 -1 2 0 2 0 0 2 0 2 0 1 0 2 0 2 -1 2 0 1 1 1 1 0 3 0 2 1 3 0 2 0 2 0 1 0 0 1 -1 0 -3 0 -2 0 -3 0 -3 0 -2 0 -2 1 0 2 0 3 -1 3 0 2 -1 2 1 2 -1 3 0 2 0 4 -1 2 0 1 0 3 0 3 0 3 0 4 0 9 0 3 0 3 0 3 2 1 2 0 2 1 3 1 2 0 3 1 2 1 1 0 2 0 1 1 0 1zm3 -5l-1 1 -1 -1 1 -1 1 1 0 1z"/>
   <polygon id="2" class="fil6" points="5544,966 5544,968 5544,969 5543,970 5542,971 5541,970 5540,969 5540,967 5539,966 5539,964 5538,960 5536,958 5535,955 5534,953 5533,949 5533,946 5532,944 5530,943 5528,944 5526,945 5521,946 5519,946 5516,946 5512,944 5509,943 5508,942 5506,941 5505,939 5504,938 5503,936 5503,933 5503,931 5503,927 5503,923 5504,920 5503,918 5503,915 5503,911 5503,908 5504,905 5506,902 5508,899 5509,897 5510,895 5513,892 5515,890 5516,888 5518,886 5520,885 5523,885 5525,884 5529,884 5531,882 5534,881 5537,882 5539,882 5541,884 5541,886 5542,887 5543,889 5543,890 5542,891 5540,892 5538,893 5535,893 5533,892 5530,891 5528,892 5524,894 5522,896 5519,898 5518,899 5516,901 5515,903 5513,906 5511,908 5510,911 5509,914 5509,918 5509,920 5508,923 5507,927 5507,931 5508,935 5510,937 5512,939 5514,940 5517,942 5521,942 5524,942 5525,942 5526,941 5528,939 5530,937 5530,932 5530,930 5530,927 5531,924 5532,922 5532,919 5532,918 5533,917 5534,916 5535,916 5537,916 5539,917 5539,920 5540,923 5541,926 5541,928 5543,931 5543,934 5543,937 5542,941 5542,944 5542,947 5542,952 5542,955 5543,959 5543,963 5544,965 "/>
   <path id="3" class="fil6" d="M5612 928l0 1 -1 0 0 0 0 0 0 -1 0 0 1 0zm1 38l-1 1 -1 0 0 -1 -1 -1 -1 -2 -1 -2 -2 -3 -1 -3 -1 -2 -1 -1 -2 -5 -1 -2 -1 -2 -1 -2 -1 -1 -3 -3 -1 -2 -2 -2 -3 -1 -3 0 -3 1 -2 1 -2 2 -2 1 -1 1 -2 1 -4 2 -1 1 -1 3 0 2 -1 1 0 2 0 2 0 4 0 3 -1 3 -1 2 -1 2 -2 2 -2 0 -2 0 -1 -1 -1 0 -1 -1 -1 -1 0 -1 -1 -1 0 -3 1 -2 0 -1 0 -1 1 0 0 -1 1 -1 1 -1 1 -2 1 -1 1 -2 0 -3 1 0 0 -2 1 -3 0 -2 -1 -3 -1 -2 0 -3 0 -2 0 -1 0 -1 0 -1 2 -2 0 -1 1 -1 1 -2 2 -3 0 -2 0 -1 0 -1 1 -3 1 -3 1 -4 0 -2 1 -1 0 -3 0 -3 0 -3 1 -2 1 -2 1 -1 0 -2 1 -1 0 -1 0 -1 0 -2 -1 -2 0 -2 -1 -1 0 -2 1 0 1 -1 1 0 1 -1 2 0 2 1 1 2 1 0 1 2 1 2 1 2 1 3 1 2 0 1 1 1 1 1 1 2 0 2 1 2 0 1 1 1 1 2 1 2 0 3 1 2 1 3 0 1 1 2 1 3 1 3 0 2 1 2 2 1 2 1 3 0 2 0 2 1 0 1 1 1 -1 0 0 1 -1 1 -1 0 -1 1 -2 0 -2 1 -1 1 0 2 0 2 1 2 1 2 1 3 1 2 1 3 1 2 1 3 1 2 1 4 1 0 1 2 1 2 0 1 1 1 1 2zm0 5c0,0 0,0 -1,0l0 0 0 0 0 0 1 0 0 1zm-52 -49l0 1 -1 0 -1 -1 0 -1 1 -1 1 0 0 0 0 1zm-8 32l-1 0 -1 0 0 -1 0 0 1 0 0 0 0 0zm2 17l0 1 -1 0 0 -1 1 0 1 0 0 1zm33 -48l-1 -1 -1 -2 0 -2 -1 -1 0 -1 -1 -1 0 -3 -2 -2 1 -1 -1 -2 -1 -5 -1 -2 0 -2 -1 -2 -1 -1 -1 -3 -3 3 0 2 -1 1 0 2 0 1 -1 3 0 2 0 1 -1 1 0 2 0 4 0 2 -1 2 0 2 -1 2 1 2 3 1 3 1 3 1 1 1 3 1 2 0 1 0 1 -1zm-6 0l-1 0 -1 0 0 -1 1 0 0 0 0 0 0 1z"/>
   <path id="4" class="fil6" d="M5647 903l-1 1 -2 0 -1 -1 3 0 1 1zm17 10l-1 3 0 4 -1 4 0 3 0 4 -1 3 0 4 -2 3 -1 3 -5 8 -2 2 -3 2 -3 1 -6 1 -3 0 -3 0 -2 0 -1 -1 -1 -1 -1 -1 1 -2 2 -2 2 -1 1 0 2 -2 2 -1 2 0 2 -2 2 -1 2 -1 2 -3 2 -3 2 -3 1 -3 0 -3 1 -3 -1 -2 0 -2 1 -3 0 -2 1 -3 0 -3 -1 -3 -1 -4 -1 -4 -1 -2 0 -2 -1 -3 -2 -2 -2 -1 -5 0 -3 1 -1 2 -1 3 -1 3 -1 3 -1 3 -1 4 -1 2 0 2 0 3 1 2 -1 1 1 1 -1 2 0 3 -1 2 0 3 0 2 -1 2 -1 2 0 2 0 2 -1 3 0 2 0 4 0 2 0 2 1 3 1 1 0 2 -1 2 -1 0 -1 0 -1 -1 -1 -1 -1 -1 -1 -3 0 -3 0 -3 0 -3 0 -2 1 -4 0 -4 1 -3 0 -3 1 -3 0 -4 0 -4 1 -4 -1 -2 0 -3 0 -4 1 -3 0 -3 1 -5 0 -3 -1 -2 0 -2 -1 -1 -1 -2 0 -1 0 -3 1 -1 3 -1 3 -1 3 -1 3 0 2 0 5 1 2 0 2 1 0 1 2 0 2 2 2 1 1 3 1 2 1 3 1 2 1 3 1 3 0 3 0 3 1 3 0 3zm-49 -4l-1 1 -2 -1 1 -1 2 1z"/>
   <path id="5" class="fil6" d="M5698 889l-1 1 0 -1 0 -1 1 0 0 1zm28 40l-1 6 -2 6 -2 4 -2 2 -2 3 -2 3 -3 2 -4 1 -5 1 -4 -1 -4 -1 -3 -2 -6 -4 -3 -3 -2 -2 -2 -3 -1 -4 -1 -4 -1 -4 1 -3 -1 -4 -1 -3 1 -3 0 -2 1 -1 0 -3 1 -2 1 -2 1 -3 2 -3 2 -2 1 -3 2 0 2 -2 1 -1 2 -1 2 -1 2 -1 2 -2 2 -2 1 -1 2 -1 3 1 2 2 2 2 1 3 0 2 -3 3 -3 1 -4 0 -3 4 -2 4 -2 3 -2 5 -1 5 -1 5 2 5 1 4 2 3 2 5 2 0 1 1 2 1 3 0 3 -1 3 -1 2 -2 0 -5 1 -1 0 -4 1 -2 0 -3 1 -2 -1 -2 0 -3 -1 -2 -2 -1 -1 -3 -2 -3 0 -3 1 -2 1 -1 2 0 3 2 3 1 1 3 2 2 1 3 1 3 1 2 1 2 0 3 1 3zm-50 -20l-1 1 -1 1 0 -1 1 -1 1 0 0 1z"/>
   <path id="6" class="fil6" d="M5824 888l-2 1 0 -2 1 0 0 1zm24 -11l0 2 0 2 -1 1 0 1 -1 2 -1 2 -1 2 -1 4 0 2 -1 3 0 2 -1 3 0 3 -1 2 -1 3 0 3 -4 8 -1 1 0 2 -1 2 -1 3 -1 2 0 3 -2 4 -1 2 0 3 0 2 -1 2 0 2 0 2 0 1 -1 1 -1 3 -1 0 -1 0 -1 -2 -3 -1 -1 -2 -1 -2 -1 -2 0 -2 -1 -2 1 -2 -1 -2 0 -4 -2 -4 -1 -4 -1 -3 -1 -5 -1 -2 -1 -2 -1 -3 -2 -6 -2 -3 -1 3 -1 1 0 7 -1 4 0 3 -1 4 -1 4 -1 2 -1 3 -1 4 0 8 -1 2 1 2 -1 2 -2 1 -3 0 -2 -1 -1 -2 -1 -3 -1 -3 0 -2 2 -3 1 -1 1 -1 1 -3 0 -4 1 -3 0 -3 1 -2 -1 -6 -1 -2 0 -4 1 -4 1 -2 1 -3 2 -2 1 -8 2 -2 1 -3 2 -2 1 -1 1 -1 0 -2 1 -1 1 0 1 1 0 2 1 3 1 4 1 9 1 4 1 2 0 3 0 2 1 4 0 4 2 3 1 4 0 4 1 3 1 4 1 2 1 1 1 0 1 -1 2 -1 1 -3 1 -1 0 -1 1 -3 0 -2 0 -3 1 -1 1 -2 1 -2 1 -2 1 -1 0 -2 1 -2 1 -2 1 -3 1 -2 0 -4 -1 -3 -1 -3 -1 -2 0 -3 0 -3 1 -1 0 -2 1 -1 1 -4 1 -2 1 1 2 -1 1 -2 2 -1 2 -1 1 1 1 2 1 0 0 2zm-53 84l-1 1 -1 -1 0 -1 1 0 0 1z"/>
   <path id="7" class="fil6" d="M5876 889l-1 1 0 -1 0 -1 1 0 0 1zm28 40l-1 6 -2 6 -2 4 -2 2 -2 3 -2 3 -3 2 -4 1 -5 1 -4 -1 -4 -1 -3 -2 -6 -4 -3 -3 -2 -2 -2 -3 -1 -4 -1 -4 -1 -4 1 -3 -1 -4 -1 -3 1 -3 0 -2 1 -1 0 -3 1 -2 1 -2 1 -3 2 -3 2 -2 1 -3 2 0 2 -2 1 -1 2 -1 2 -1 2 -1 2 -2 2 -2 1 -1 2 -1 3 1 2 2 2 2 1 3 0 2 -3 3 -3 1 -4 0 -3 4 -2 4 -2 3 -2 5 -1 5 -1 5 2 5 1 4 2 3 2 5 2 0 1 1 2 1 3 0 3 -1 3 -1 2 -2 0 -5 1 -1 0 -4 1 -2 0 -3 1 -2 -1 -2 0 -3 -1 -2 -2 -1 -1 -3 -2 -3 0 -3 1 -2 1 -1 2 0 3 2 3 1 1 3 2 2 1 3 1 3 1 2 1 2 0 3 1 3zm-50 -20l-1 1 -1 1 0 -1 1 -1 1 0 0 1z"/>
   <polygon id="8" class="fil6" points="6027,933 6026,936 6026,938 6024,943 6022,947 6021,948 6019,951 6017,953 6015,955 6012,957 6006,958 6004,958 6001,958 5995,957 5993,956 5990,955 5986,952 5982,949 5978,945 5976,944 5974,941 5971,939 5970,935 5968,931 5967,927 5967,922 5967,916 5968,911 5969,907 5971,903 5971,899 5972,895 5974,893 5974,891 5976,890 5980,888 5982,887 5986,887 5991,885 5995,883 5997,882 6001,882 6005,882 6008,884 6010,885 6013,888 6016,893 6016,894 6014,895 6013,897 6010,898 6007,897 6003,896 6000,895 5997,894 5993,895 5989,896 5985,898 5983,900 5982,902 5980,905 5978,910 5977,916 5977,919 5977,922 5977,927 5978,931 5979,935 5981,938 5987,945 5990,947 5992,948 5999,949 6004,947 6009,946 6012,943 6014,939 6018,935 6020,935 6022,934 6024,931 6025,930 6027,931 "/>
   <path id="9" class="fil6" d="M6090 889l0 1 -1 0 -1 0 -2 -1 -2 -1 -4 0 -3 1 -3 1 -4 2 -3 1 -2 0 -2 1 -5 0 -4 0 -4 0 -4 1 -2 1 -1 2 -1 2 0 3 0 3 -1 6 0 1 -1 4 1 0 1 0 2 -1 2 -2 2 -1 4 0 6 0 4 0 1 1 1 1 3 0 1 1 1 0 3 1 3 0 0 1 0 0 -2 1 -1 0 -1 0 -4 0 -5 1 -5 1 -4 1 -4 0 -3 1 -3 -2 0 4 0 3 0 3 1 3 1 4 1 3 4 5 2 2 3 2 3 1 3 2 4 1 4 1 3 1 2 0 2 1 5 1 1 1 0 1 0 1 -1 0 -3 0 -3 0 -5 0 -4 0 -3 -1 -1 0 -2 0 -4 -1 -2 -1 -2 -2 -2 -1 -2 -1 -2 -3 -2 -3 0 -3 0 -2 -2 -3 0 -3 -1 -2 0 -4 -1 -2 0 -2 -1 -4 1 -2 -1 -2 0 -1 0 -2 1 -2 0 -2 1 -2 0 -3 0 -2 1 -2 0 -2 1 -1 0 -2 -1 -1 -2 -2 0 -1 0 -2 1 -3 1 -2 2 -2 2 -1 2 -1 3 1 3 1 4 0 5 0 7 0 4 0 3 1 3 0 3 0 2 1 2 1 1 0 3 1 2 1 1 1zm-42 66l0 1 -1 0 0 -1 1 -1 1 1zm28 -98l0 1 -1 1 0 1 0 2 -1 2 -2 1 -2 1 -3 0 -2 1 -2 1 -1 0 -2 1 -2 1 -1 1 -1 0 -1 -1 0 -2 2 -2 2 -1 2 -2 2 -2 2 -2 2 -2 2 -2 2 -1 1 -1 2 0 2 1 1 1 0 1z"/>
   <path id="10" class="fil6" d="M6144 902l0 1 -1 0 -1 -1 1 -1 1 0 0 1zm-6 -1l0 4 0 2 0 4 0 2 -1 3 0 3 -1 2 0 2 -1 2 0 1 -1 1 0 2 0 3 -1 2 -1 2 -1 3 -1 1 -1 3 -1 3 -2 3 -2 2 -2 2 -3 1 -3 1 -3 0 -3 0 -4 0 -2 -1 -2 -1 -2 -1 -2 -2 -1 -2 -1 -3 -1 -2 0 -3 0 -3 0 -3 0 -4 0 -3 0 -3 1 -2 -1 -1 0 -2 1 -2 0 -3 0 -2 1 -3 1 -3 0 -3 1 -3 0 -3 -1 -2 -1 -3 0 -1 1 -2 1 -2 1 0 2 -1 3 0 3 1 2 1 1 1 1 1 1 1 1 2 0 2 -1 2 -1 2 -1 3 -1 2 -1 4 -1 3 -1 4 -1 3 -1 3 -1 3 0 4 -1 3 1 4 0 5 1 3 1 2 2 2 1 1 2 1 3 1 2 0 2 0 4 -1 3 -2 2 -2 1 -2 1 -2 0 -2 1 -1 1 -3 1 -2 1 -2 1 -2 0 -1 0 -1 1 -1 0 -2 1 -4 0 -3 1 -3 0 -3 1 -3 0 -3 0 -3 0 -3 1 -2 -1 -1 0 -1 0 -2 0 -1 0 -2 0 -2 0 -1 1 0 0 1 0 2 0 3 0 1 0 4 0 4z"/>
   <polygon id="11" class="fil6" points="5448,1045 5447,1047 5446,1048 5445,1049 5443,1049 5439,1049 5436,1048 5433,1048 5431,1048 5429,1049 5427,1050 5427,1051 5425,1051 5422,1054 5420,1056 5419,1057 5419,1060 5417,1062 5417,1064 5417,1067 5417,1070 5416,1073 5416,1076 5416,1079 5416,1081 5416,1082 5418,1083 5420,1083 5424,1083 5427,1083 5429,1083 5432,1084 5433,1085 5435,1084 5437,1085 5437,1086 5435,1088 5430,1088 5427,1087 5422,1087 5419,1088 5417,1088 5416,1089 5416,1091 5414,1092 5413,1093 5412,1095 5413,1097 5413,1102 5413,1106 5413,1110 5413,1115 5414,1120 5414,1124 5414,1128 5416,1131 5416,1133 5416,1135 5416,1137 5415,1138 5414,1139 5414,1139 5413,1139 5410,1137 5409,1135 5408,1133 5408,1130 5408,1129 5410,1127 5409,1123 5408,1116 5408,1111 5408,1107 5408,1104 5407,1100 5407,1097 5406,1094 5406,1090 5405,1081 5405,1077 5405,1067 5405,1064 5405,1061 5406,1057 5406,1055 5407,1052 5407,1048 5409,1046 5411,1045 5414,1045 5415,1045 5416,1044 5417,1043 5419,1042 5421,1041 5423,1039 5424,1037 5426,1036 5428,1035 5430,1035 5433,1036 5435,1037 5440,1039 5441,1040 5443,1040 5444,1041 5445,1042 5446,1043 5447,1044 "/>
   <path id="12" class="fil6" d="M5507 1095l0 1 -1 0 0 0 0 0 0 -1 0 0 1 0zm1 38l-1 1 -1 0 0 -1 -1 -1 -1 -2 -1 -2 -2 -3 -1 -3 -1 -2 -1 -1 -2 -5 -1 -2 -1 -2 -1 -2 -1 -1 -3 -3 -1 -2 -2 -2 -3 -1 -3 0 -3 1 -2 1 -2 2 -2 1 -1 1 -2 1 -4 2 -1 1 -1 3 0 2 -1 1 0 2 0 2 0 4 0 3 -1 3 -1 2 -1 2 -2 2 -2 0 -2 0 -1 -1 -1 0 -1 -1 -1 -1 0 -1 -1 -1 0 -3 1 -2 0 -1 0 -1 1 0 0 -1 1 -1 1 -1 1 -2 1 -1 1 -2 0 -3 1 0 0 -2 1 -3 0 -2 -1 -3 -1 -2 0 -3 0 -2 0 -1 0 -1 0 -1 2 -2 0 -1 1 -1 1 -2 2 -3 0 -2 0 -1 0 -1 1 -3 1 -3 1 -4 0 -2 1 -1 0 -3 0 -3 0 -3 1 -2 1 -2 1 -1 0 -2 1 -1 0 -1 0 -1 0 -2 -1 -2 0 -2 -1 -1 0 -2 1 0 1 -1 1 0 1 -1 2 0 2 1 1 2 1 0 1 2 1 2 1 2 1 3 1 2 0 1 1 1 1 1 1 2 0 2 1 2 0 1 1 1 1 2 1 2 0 3 1 2 1 3 0 1 1 2 1 3 1 3 0 2 1 2 2 1 2 1 3 0 2 0 2 1 0 1 1 1 -1 0 0 1 -1 1 -1 0 -1 1 -2 0 -2 1 -1 1 0 2 0 2 1 2 1 2 1 3 1 2 1 3 1 2 1 3 1 2 1 4 1 0 1 2 1 2 0 1 1 1 1 2zm0 5c0,0 0,0 -1,0l0 0 0 0 0 0 1 0 0 1zm-52 -49l0 1 -1 0 -1 -1 0 -1 1 -1 1 0 0 0 0 1zm-8 32l-1 0 -1 0 0 -1 0 0 1 0 0 0 0 0zm2 17l0 1 -1 0 0 -1 1 0 1 0 0 1zm33 -48l-1 -1 -1 -2 0 -2 -1 -1 0 -1 -1 -1 0 -3 -2 -2 1 -1 -1 -2 -1 -5 -1 -2 0 -2 -1 -2 -1 -1 -1 -3 -3 3 0 2 -1 1 0 2 0 1 -1 3 0 2 0 1 -1 1 0 2 0 4 0 2 -1 2 0 2 -1 2 1 2 3 1 3 1 3 1 1 1 3 1 2 0 1 0 1 -1zm-6 0l-1 0 -1 0 0 -1 1 0 0 0 0 0 0 1z"/>
   <path id="13" class="fil6" d="M5579 1062l0 2 -1 1 -1 1 -2 0 -2 -1 -2 -1 -2 0 -2 -1 -2 0 -2 1 -3 0 -2 0 -2 1 -2 1 -3 1 -1 1 -2 0 -3 1 -2 0 -2 1 -2 0 -2 1 -3 0 -3 0 -6 0 -3 0 -3 -1 -1 -2 -1 -2 -1 -1 0 -2 0 -1 1 -2 1 -1 1 -1 3 -1 3 -1 3 0 4 0 3 0 3 0 2 0 3 -1 3 0 2 -1 7 0 3 0 4 0 7 1 2 1 2 0 1 0 2 1 1 1 0 2zm-5 67l0 1 -2 0 -5 -1 -3 0 -2 0 -3 -1 -3 0 -3 0 -4 0 -4 0 -3 0 -3 0 -2 0 -2 0 -3 0 -3 0 -2 0 -3 1 -2 1 -2 0 -2 -1 -3 0 -3 0 -2 -1 -1 -1 -1 -2 -1 -2 0 -2 1 -2 1 -1 2 -2 2 -1 3 -1 2 -2 1 -1 3 -2 1 -1 3 -2 1 -2 2 -1 2 -2 4 -3 0 -1 1 -1 1 -1 1 -1 1 -2 1 -1 1 -1 1 -1 2 -1 2 -2 2 -2 3 -3 2 -2 2 -1 1 -2 2 -2 1 -2 1 -2 2 -1 2 -1 1 -2 1 -1 2 -1 2 1 1 1 -1 1 -2 1 -2 1 -2 1 -2 1 -1 1 -1 2 -1 2 -2 2 -2 1 -3 3 -2 2 -1 1 -4 4 -3 2 -2 2 -1 1 -2 1 -1 1 -2 1 -1 2 -2 1 -1 2 -2 2 -2 2 -2 1 -2 2 -2 2 -1 2 -2 1 -1 2 -1 2 -2 2 -1 1 1 1 2 1 2 1 2 0 1 -2 3 -1 4 -1 2 0 8 0 3 0 3 0 2 0 3 0 3 0 4 0 3 0 3 1 3 0 2 1 2 1 2 1 2 1 1 1z"/>
   <path id="14" class="fil6" d="M5635 1056l0 1 -1 0 -1 0 -2 -1 -2 -1 -4 0 -3 1 -3 1 -4 2 -3 1 -2 0 -2 1 -5 0 -4 0 -4 0 -4 1 -2 1 -1 2 -1 2 0 3 0 3 -1 6 0 1 -1 4 1 0 1 0 2 -1 2 -2 2 -1 4 0 6 0 4 0 1 1 1 1 3 0 1 1 1 0 3 1 3 0 0 1 0 0 -2 1 -1 0 -1 0 -4 0 -5 1 -5 1 -4 1 -4 0 -3 1 -3 -2 0 4 0 3 0 3 1 3 1 4 1 3 4 5 2 2 3 2 3 1 3 2 4 1 4 1 3 1 2 0 2 1 5 1 1 1 0 1 0 1 -1 0 -3 0 -3 0 -5 0 -4 0 -3 -1 -1 0 -2 0 -4 -1 -2 -1 -2 -2 -2 -1 -2 -1 -2 -3 -2 -3 0 -3 0 -2 -2 -3 0 -3 -1 -2 0 -4 -1 -2 0 -2 -1 -4 1 -2 -1 -2 0 -1 0 -2 1 -2 0 -2 1 -2 0 -3 0 -2 1 -2 0 -2 1 -1 0 -2 -1 -1 -2 -2 0 -1 0 -2 1 -3 1 -2 2 -2 2 -1 2 -1 3 1 3 1 4 0 5 0 7 0 4 0 3 1 3 0 3 0 2 1 2 1 1 0 3 1 2 1 1 1zm-42 66l0 1 -1 0 0 -1 1 -1 1 1z"/>
   <path id="15" class="fil6" d="M5672 1055l-2 1 0 -2 1 0 0 1zm24 -11l0 2 0 2 -1 1 0 1 -1 2 -1 2 -1 2 -1 4 0 2 -1 3 0 2 -1 3 0 3 -1 2 -1 3 0 3 -4 8 -1 1 0 2 -1 2 -1 3 -1 2 0 3 -2 4 -1 2 0 3 0 2 -1 2 0 2 0 2 0 1 -1 1 -1 3 -1 0 -1 0 -1 -2 -3 -1 -1 -2 -1 -2 -1 -2 0 -2 -1 -2 1 -2 -1 -2 0 -4 -2 -4 -1 -4 -1 -3 -1 -5 -1 -2 -1 -2 -1 -3 -2 -6 -2 -3 -1 3 -1 1 0 7 -1 4 0 3 -1 4 -1 4 -1 2 -1 3 -1 4 0 8 -1 2 1 2 -1 2 -2 1 -3 0 -2 -1 -1 -2 -1 -3 -1 -3 0 -2 2 -3 1 -1 1 -1 1 -3 0 -4 1 -3 0 -3 1 -2 -1 -6 -1 -2 0 -4 1 -4 1 -2 1 -3 2 -2 1 -8 2 -2 1 -3 2 -2 1 -1 1 -1 0 -2 1 -1 1 0 1 1 0 2 1 3 1 4 1 9 1 4 1 2 0 3 0 2 1 4 0 4 2 3 1 4 0 4 1 3 1 4 1 2 1 1 1 0 1 -1 2 -1 1 -3 1 -1 0 -1 1 -3 0 -2 0 -3 1 -1 1 -2 1 -2 1 -2 1 -1 0 -2 1 -2 1 -2 1 -3 1 -2 0 -4 -1 -3 -1 -3 -1 -2 0 -3 0 -3 1 -1 0 -2 1 -1 1 -4 1 -2 1 1 2 -1 1 -2 2 -1 2 -1 1 1 1 2 1 0 0 2zm-53 84l-1 1 -1 -1 0 -1 1 0 0 1z"/>
   <path id="16" class="fil6" d="M5727 1071l-1 1 -2 0 -1 -1 3 0 1 1zm17 10l-1 3 0 4 -1 4 0 3 0 4 -1 3 0 4 -2 3 -1 3 -5 8 -2 2 -3 2 -3 1 -6 1 -3 0 -3 0 -2 0 -1 -1 -1 -1 -1 -1 1 -2 2 -2 2 -1 1 0 2 -2 2 -1 2 0 2 -2 2 -1 2 -1 2 -3 2 -3 2 -3 1 -3 0 -3 1 -3 -1 -2 0 -2 1 -3 0 -2 1 -3 0 -3 -1 -3 -1 -4 -1 -4 -1 -2 0 -2 -1 -3 -2 -2 -2 -1 -5 0 -3 1 -1 2 -1 3 -1 3 -1 3 -1 3 -1 4 -1 2 0 2 0 3 1 2 -1 1 1 1 -1 2 0 3 -1 2 0 3 0 2 -1 2 -1 2 0 2 0 2 -1 3 0 2 0 4 0 2 0 2 1 3 1 1 0 2 -1 2 -1 0 -1 0 -1 -1 -1 -1 -1 -1 -1 -3 0 -3 0 -3 0 -3 0 -2 1 -4 0 -4 1 -3 0 -3 1 -3 0 -4 0 -4 1 -4 -1 -2 0 -3 0 -4 1 -3 0 -3 1 -5 0 -3 -1 -2 0 -2 -1 -1 -1 -2 0 -1 0 -3 1 -1 3 -1 3 -1 3 -1 3 0 2 0 5 1 2 0 2 1 0 1 2 0 2 2 2 1 1 3 1 2 1 3 1 2 1 3 1 3 0 3 0 3 1 3 0 3zm-49 -4l-1 1 -2 -1 1 -1 2 1z"/>
   <path id="17" class="fil6" d="M5778 1056l-1 1 0 -1 0 -1 1 0 0 1zm28 40l-1 6 -2 6 -2 4 -2 2 -2 3 -2 3 -3 2 -4 1 -5 1 -4 -1 -4 -1 -3 -2 -6 -4 -3 -3 -2 -2 -2 -3 -1 -4 -1 -4 -1 -4 1 -3 -1 -4 -1 -3 1 -3 0 -2 1 -1 0 -3 1 -2 1 -2 1 -3 2 -3 2 -2 1 -3 2 0 2 -2 1 -1 2 -1 2 -1 2 -1 2 -2 2 -2 1 -1 2 -1 3 1 2 2 2 2 1 3 0 2 -3 3 -3 1 -4 0 -3 4 -2 4 -2 3 -2 5 -1 5 -1 5 2 5 1 4 2 3 2 5 2 0 1 1 2 1 3 0 3 -1 3 -1 2 -2 0 -5 1 -1 0 -4 1 -2 0 -3 1 -2 -1 -2 0 -3 -1 -2 -2 -1 -1 -3 -2 -3 0 -3 1 -2 1 -1 2 0 3 2 3 1 1 3 2 2 1 3 1 3 1 2 1 2 0 3 1 3zm-50 -20l-1 1 -1 1 0 -1 1 -1 1 0 0 1z"/>
   <path id="18" class="fil6" d="M5876 1056l-1 1 0 -1 0 -1 1 0 0 1zm28 40l-1 6 -2 6 -2 4 -2 2 -2 3 -2 3 -3 2 -4 1 -5 1 -4 -1 -4 -1 -3 -2 -6 -4 -3 -3 -2 -2 -2 -3 -1 -4 -1 -4 -1 -4 1 -3 -1 -4 -1 -3 1 -3 0 -2 1 -1 0 -3 1 -2 1 -2 1 -3 2 -3 2 -2 1 -3 2 0 2 -2 1 -1 2 -1 2 -1 2 -1 2 -2 2 -2 1 -1 2 -1 3 1 2 2 2 2 1 3 0 2 -3 3 -3 1 -4 0 -3 4 -2 4 -2 3 -2 5 -1 5 -1 5 2 5 1 4 2 3 2 5 2 0 1 1 2 1 3 0 3 -1 3 -1 2 -2 0 -5 1 -1 0 -4 1 -2 0 -3 1 -2 -1 -2 0 -3 -1 -2 -2 -1 -1 -3 -2 -3 0 -3 1 -2 1 -1 2 0 3 2 3 1 1 3 2 2 1 3 1 3 1 2 1 2 0 3 1 3zm-50 -20l-1 1 -1 1 0 -1 1 -1 1 0 0 1z"/>
   <path id="19" class="fil6" d="M5965 1038l0 1 -2 0 0 -1 1 -1 1 1zm42 68l0 3 -1 2 -1 2 -1 2 -2 2 -1 3 -1 2 -1 0 -1 -1 1 -1 0 -1 1 -1 1 -1 2 -4 1 -2 1 -4 0 -5 0 -3 -1 -1 0 -1 -1 -1 0 -1 -2 -2 -1 -2 -1 -1 0 -1 -2 -2 -3 -2 -6 0 -5 1 -3 1 -4 1 -8 3 -1 1 -2 0 -1 2 0 2 0 3 0 4 0 3 0 3 2 0 1 -2 1 -1 1 0 1 1 0 2 -1 2 -1 2 0 3 2 2 2 2 1 2 1 2 2 0 2 1 2 1 2 0 2 1 3 1 3 0 5 0 2 -1 0 1 -1 1 -1 1 -1 1 -1 0 -1 -1 -5 0 -3 0 -1 -1 -2 0 -2 -2 -2 -1 -1 -1 -1 0 -2 -1 -3 1 -4 2 -5 2 -1 1 -4 2 -2 1 -2 -2 -2 -3 -1 -3 1 -3 0 -1 1 -1 1 -1 2 -2 -1 -2 1 -2 -1 -2 1 -3 1 -1 2 -2 0 -2 0 -2 0 -5 1 -1 0 -3 0 -1 0 -5 -1 -5 -1 -2 0 -3 -1 -2 -1 -6 -1 -1 0 -2 1 -1 0 -9 0 -4 1 -2 2 -2 3 -1 1 -1 4 0 4 0 5 0 3 -1 3 -1 2 -1 1 0 2 0 5 0 5 1 3 0 3 2 2 3 1 3 1 3 0 3 -1 4 0 4 -3 5 -2 2 -2 3 -2 1 -2 2 -2 2 -1 1 0 1 2 1 2 0 2 1 2 2 2 1 1 3 3 3 1 3 1 2 1 2 1 3 0 2 0 2 0 2zm-11 12l0 1 -1 1 -2 0 -3 -1 -2 -1 -3 -2 -2 -4 -2 -3 -1 -2 0 -2 0 -2 1 -1 3 -1 3 0 4 -1 1 1 0 1 -1 1 -1 1 0 3 2 3 2 3 1 3 1 1 1 3zm4 -60l0 -4 0 -1 0 -1 -2 -3 -2 -2 -1 0 -1 -1 -7 0 -3 1 -4 1 -4 1 -4 2 -4 3 -2 1 -2 2 -1 2 -1 4 0 3 1 4 0 4 1 2 0 3 0 3 2 1 2 0 3 0 6 -2 4 0 2 0 4 -2 2 -1 2 -1 2 -2 1 0 1 -2 2 -1 1 -2 2 -1 0 -3 1 -2 0 -1 1 -2z"/>
   <path id="20" class="fil6" d="M6072 1056l0 1 -1 0 -1 0 -2 -1 -2 -1 -4 0 -3 1 -3 1 -4 2 -3 1 -2 0 -2 1 -5 0 -4 0 -4 0 -4 1 -2 1 -1 2 -1 2 0 3 0 3 -1 6 0 1 -1 4 1 0 1 0 2 -1 2 -2 2 -1 4 0 6 0 4 0 1 1 1 1 3 0 1 1 1 0 3 1 3 0 0 1 0 0 -2 1 -1 0 -1 0 -4 0 -5 1 -5 1 -4 1 -4 0 -3 1 -3 -2 0 4 0 3 0 3 1 3 1 4 1 3 4 5 2 2 3 2 3 1 3 2 4 1 4 1 3 1 2 0 2 1 5 1 1 1 0 1 0 1 -1 0 -3 0 -3 0 -5 0 -4 0 -3 -1 -1 0 -2 0 -4 -1 -2 -1 -2 -2 -2 -1 -2 -1 -2 -3 -2 -3 0 -3 0 -2 -2 -3 0 -3 -1 -2 0 -4 -1 -2 0 -2 -1 -4 1 -2 -1 -2 0 -1 0 -2 1 -2 0 -2 1 -2 0 -3 0 -2 1 -2 0 -2 1 -1 0 -2 -1 -1 -2 -2 0 -1 0 -2 1 -3 1 -2 2 -2 2 -1 2 -1 3 1 3 1 4 0 5 0 7 0 4 0 3 1 3 0 3 0 2 1 2 1 1 0 3 1 2 1 1 1zm-42 66l0 1 -1 0 0 -1 1 -1 1 1z"/>
   <path id="21" class="fil6" d="M6096 1038l-1 1 -1 0 0 -2 1 0 0 1zm43 55l-1 1 -1 -1 1 -1 1 1zm-2 45l0 1 -1 1 -1 -2 -1 -3 -1 -1 0 -1 0 -5 -2 -5 -1 -5 -1 -4 -1 -5 0 -4 -1 -2 -1 -4 0 -3 -1 -3 0 -5 -1 -2 0 -3 0 -4 1 -4 1 -2 -1 -3 0 -3 0 -3 -2 -1 -1 -1 -2 2 -2 3 -2 3 -1 4 -1 4 -1 4 -1 4 -1 4 -1 2 -1 1 -1 1 -2 -1 -1 -2 -2 -3 -1 -3 -1 -6 -1 -3 -1 -4 -1 -3 -1 -3 -1 -2 -1 -1 -2 -1 -1 2 -1 3 -1 4 -1 8 -1 4 0 2 -1 6 -1 7 0 4 1 1 0 3 1 2 -1 2 -1 2 -3 0 -2 0 -3 0 -2 -1 -1 -1 -1 -3 1 -5 1 -3 1 -1 0 -7 2 -8 0 -3 2 -3 0 -2 2 -3 0 -2 4 -9 1 -2 1 -1 0 -2 2 -2 2 -3 2 -1 2 0 1 1 1 2 1 3 1 3 1 4 1 3 1 4 1 3 1 4 0 3 1 3 2 2 1 1 1 -1 1 -2 1 -3 1 -4 2 -4 1 -3 1 -2 -1 -1 -1 -2 0 -3 1 -3 1 -3 1 -3 2 -3 1 -1 2 -2 2 -1 1 -1 2 1 2 0 2 1 2 2 1 2 0 3 0 3 0 3 0 4 0 7 0 4 1 7 0 4 0 5 0 4 0 4 0 4 -1 2 1 3 0 7 1 1 0 5 1 4 1 7 0 3 0 5zm-56 -21l-1 1 -1 0 0 -2 1 0 1 1z"/>
  </g>
 </g>
</svg>
